<?xml version="1.0" encoding="UTF-8"?>
<svg version="1.1" xmlns="http://www.w3.org/2000/svg" width="2000" height="354">
<path d="M0 0 C4.64079425 -0.45361147 7.77127709 1.11572496 11.75 3.25 C13.19421146 3.99692442 14.63960327 4.74156941 16.0859375 5.484375 C16.87452148 5.89107422 17.66310547 6.29777344 18.47558594 6.71679688 C23.07215964 9.05331441 27.72426488 11.27377457 32.375 13.5 C33.41769043 13.99991455 34.46038086 14.4998291 35.53466797 15.01489258 C45.35528459 19.71218176 55.2083264 24.34011184 65.06347656 28.96438599 C74.86325738 33.56323076 84.63298911 38.21745474 94.375 42.9375 C102.90794801 47.07138136 111.48704811 51.06097274 120.15332031 54.90673828 C125.68827507 57.37466091 131.10567496 60.01645907 136.50268555 62.77075195 C142.9226405 66.01924122 149.45883602 69.00487462 156 72 C163.67218786 75.51410788 171.29005235 79.0832302 178.8046875 82.921875 C185.1231913 86.12045369 191.56206793 89.05110594 198 92 C205.67213761 95.51422176 213.2900483 99.08322814 220.8046875 102.921875 C227.12319745 106.1204568 233.56212795 109.05096271 240 112 C247.74166115 115.54791784 255.43830484 119.14260019 263.03100586 122.9987793 C271.61290854 127.34814499 280.32109636 131.43761437 289.0078125 135.57226562 C291.9457966 136.97413663 294.87978448 138.38401948 297.8125 139.796875 C307.30840219 144.36694897 316.82873018 148.85913518 326.4375 153.1875 C333.39042989 156.32004476 340.26222984 159.55909388 347.06030273 163.0144043 C355.28737709 167.18802028 363.65029995 171.07927128 372 175 C372 176.32 372 177.64 372 179 C371.11143311 179.41660889 370.22286621 179.83321777 369.30737305 180.26245117 C365.09995032 182.23576846 360.89353324 184.211223 356.6875 186.1875 C355.91869507 186.54869934 355.14989014 186.90989868 354.35778809 187.28204346 C344.12760595 192.09066004 333.92304701 196.94647097 323.75 201.875 C314.74594224 206.23652776 305.68729294 210.44655971 296.5625 214.54882812 C290.7625033 217.16694151 285.06270903 219.92873629 279.39575195 222.8215332 C273.00996384 226.05335031 266.50645198 229.02041848 260 232 C252.9453979 235.23127578 245.91059552 238.46991224 239 242 C230.96503923 246.10443883 222.75648099 249.82129442 214.5546875 253.578125 C208.65101069 256.29025495 202.78568097 259.04454392 197 262 C188.96503923 266.10443883 180.75648099 269.82129442 172.5546875 273.578125 C166.65101069 276.29025495 160.78568097 279.04454392 155 282 C146.96503923 286.10443883 138.75648099 289.82129442 130.5546875 293.578125 C124.65101069 296.29025495 118.78568097 299.04454392 113 302 C104.96503923 306.10443883 96.75648099 309.82129442 88.5546875 313.578125 C82.65101069 316.29025495 76.78568097 319.04454392 71 322 C64.08939905 325.53009053 57.05455108 328.76860243 50 332 C42.75987575 335.31690676 35.54127072 338.64901024 28.4375 342.25 C22.89968146 345.05255159 17.3456376 347.81428426 11.75 350.5 C10.67576782 351.0264209 10.67576782 351.0264209 9.57983398 351.56347656 C6.07234759 353.23318667 3.95537315 354 0 354 C1.36612201 350.90255505 2.9040241 348.92333129 5.375 346.625 C8.44123314 343.66012994 10.66571507 340.57923689 13 337 C14.65351515 335.32028479 16.32276655 333.65603246 18 332 C20.14634647 329.74893679 22.26138968 327.46928408 24.375 325.1875 C24.9522583 324.56512451 25.5295166 323.94274902 26.12426758 323.30151367 C29.56795497 319.57809649 32.95857109 315.81891133 36.26953125 311.9765625 C38.43037207 309.50842377 40.65437702 307.10195991 42.875 304.6875 C46.27533563 300.96725419 49.52664393 297.17549247 52.6875 293.25 C55.72863909 289.48198056 58.87214102 286.01356997 62.34375 282.64453125 C65.41455769 279.59545097 68.18309921 276.28207706 71 273 C77.84571697 265.02823146 84.73545278 257.12247619 91.89453125 249.4296875 C95.0959807 245.98855734 98.22819457 242.5014782 101.30078125 238.9453125 C103.29406428 236.6633471 105.33493027 234.42771426 107.375 232.1875 C110.55759788 228.66989182 113.59117962 225.07252949 116.5625 221.375 C119.87352327 217.28084775 123.34940456 213.54283517 127.1171875 209.87109375 C130.26603477 206.74184512 133.1196434 203.37507433 136 200 C136.9528998 198.88782785 137.9060453 197.77586617 138.859375 196.6640625 C140.43033392 194.83160602 142.00096326 192.9988744 143.5703125 191.16503906 C147.34990742 186.74991581 151.15554468 182.35885427 155 178 C153.60305639 173.80165873 151.62717931 171.16409471 148.625 167.9375 C147.85414063 167.10089844 147.08328125 166.26429688 146.2890625 165.40234375 C144.8688521 163.9118499 143.42819652 162.44022298 141.95703125 161 C139.07150531 158.0511192 136.62732677 154.78902668 134.09765625 151.53515625 C131.87312852 148.84666743 129.48552655 146.44826229 127 144 C119.6151658 136.30610021 112.67726257 128.3165905 106 120 C103.11766275 116.452508 100.36191185 113.19490226 96.75 110.375 C93.96122465 107.9665122 92.99704115 106.48964404 92 103 C91.34 103 90.68 103 90 103 C88.71255886 101.54970831 87.49763224 100.03502843 86.3125 98.5 C81.6536761 92.66325628 76.64101103 87.24335835 71.4934082 81.8359375 C64.44245044 74.41643027 57.81546186 66.64574952 51.1875 58.84960938 C50.68734375 58.26373047 50.1871875 57.67785156 49.671875 57.07421875 C49.2294043 56.55432373 48.78693359 56.03442871 48.33105469 55.4987793 C46.99019764 53.9437101 46.99019764 53.9437101 45.33300781 52.43286133 C44 51 44 51 44 49 C43.34 49 42.68 49 42 49 C40.58984375 47.6015625 40.58984375 47.6015625 38.9375 45.625 C36.22076214 42.42453655 33.45664781 39.28693937 30.625 36.1875 C27.42347567 32.64839998 24.36853937 29.02896894 21.375 25.3125 C18.32363951 21.54067939 15.17491477 18.05799875 11.6953125 14.68359375 C7.21779194 10.23702379 2.97505158 5.6000971 0 0 Z " fill="#0074B9" transform="translate(1627,0)"/>
<path d="M0 0 C10.04288485 -0.09408304 20.08565924 -0.16444697 30.12890053 -0.20724869 C34.79605669 -0.22782624 39.46290425 -0.25557173 44.12988281 -0.30175781 C82.13694145 -0.66769638 119.88457429 -0.83814824 151 24 C152.40958984 25.06347656 152.40958984 25.06347656 153.84765625 26.1484375 C154.55792969 26.75945312 155.26820313 27.37046875 156 28 C156 28.66 156 29.32 156 30 C156.56203125 30.22042969 157.1240625 30.44085938 157.703125 30.66796875 C173.04119066 39.56300343 182.15219398 63.46263774 187.25 79.625 C196.59160067 115.05865772 193.46947592 154.05419927 175 186 C162.317213 205.90144837 144.47115423 222.37324934 122 230 C121.26652344 230.28488281 120.53304687 230.56976563 119.77734375 230.86328125 C102.8499696 237.22327732 84.01046996 237.14940777 66.2109375 237.09765625 C64.51342807 237.09618333 62.81591818 237.09516478 61.1184082 237.09460449 C54.87059848 237.08939211 48.62279852 237.0754309 42.375 237.0625 C21.399375 237.0315625 21.399375 237.0315625 0 237 C0 180.57 0 124.14 0 66 C-6.27 66 -12.54 66 -19 66 C-17.87402432 59.24414594 -17.87402432 59.24414594 -16.9765625 56.12109375 C-16.76539795 55.38221924 -16.5542334 54.64334473 -16.33666992 53.88208008 C-16.10181885 53.07536865 -15.86696777 52.26865723 -15.625 51.4375 C-15.37532471 50.57213623 -15.12564941 49.70677246 -14.8684082 48.81518555 C-12.01405251 38.96952263 -9.09925924 29.14130929 -6.1875 19.3125 C-5.93921448 18.47274628 -5.69092896 17.63299255 -5.43511963 16.76779175 C-4.72309167 14.3615158 -4.00844447 11.956034 -3.29296875 9.55078125 C-3.07653214 8.81834198 -2.86009552 8.08590271 -2.63710022 7.33126831 C-1.11474336 2.22948673 -1.11474336 2.22948673 0 0 Z M73 74 C73 103.37 73 132.74 73 163 C90.36334429 162.15830504 90.36334429 162.15830504 105 154 C105 153.34 105 152.68 105 152 C105.99 151.67 106.98 151.34 108 151 C117.40743865 139.75517098 118.17196479 124.01601949 117 110 C115.45270727 98.89307696 112.16210577 88.63652899 103.16796875 81.46484375 C93.69813195 75.06630537 84.34749665 74 73 74 Z " fill="#00A557" transform="translate(838,55)"/>
<path d="M0 0 C13.21444045 -0.09326646 26.42880076 -0.16404971 39.6435051 -0.20724869 C45.78166194 -0.22799691 51.91959124 -0.25607757 58.05761719 -0.30175781 C63.99694255 -0.34567548 69.93605104 -0.36923268 75.87552643 -0.37950897 C78.12539324 -0.38681883 80.37525012 -0.40108919 82.62502289 -0.42292023 C108.55582631 -0.66420914 132.19574118 2.5434637 151.9375 20.83984375 C168.67796415 38.37294351 172.68904308 62.21214041 172.24609375 85.55078125 C171.67652608 101.81888084 167.33834361 117.8621578 156 130 C155.41734375 130.63550781 154.8346875 131.27101562 154.234375 131.92578125 C148.72371283 137.33225023 142.2369391 139.6060735 135 142 C141.90568903 154.85998831 148.89882847 167.65953358 156.11962891 180.34545898 C160.58254278 188.20814589 164.89133416 196.14811926 169.16674805 204.11401367 C173.41532943 212.00071453 177.83808188 219.77788084 182.39477539 227.49072266 C182.86906982 228.30460449 183.34336426 229.11848633 183.83203125 229.95703125 C184.25202393 230.66835205 184.6720166 231.37967285 185.10473633 232.11254883 C186 234 186 234 186 237 C158.94 237 131.88 237 104 237 C101.03 230.4 98.06 223.8 95 217 C93.34351513 213.46824925 91.68702891 209.93649796 90.02734375 206.40625 C86.63905487 199.10675521 83.42162771 191.7281289 80.17456055 184.36499023 C79.67867432 183.24294189 79.18278809 182.12089355 78.671875 180.96484375 C78.2294043 179.9605835 77.78693359 178.95632324 77.33105469 177.92163086 C75.96051965 174.91334166 74.478389 171.956778 73 169 C72.67 191.44 72.34 213.88 72 237 C48.24 237 24.48 237 0 237 C0 180.57 0 124.14 0 66 C-6.27 66 -12.54 66 -19 66 C-19 59.2539482 -19 59.2539482 -17.6796875 55.3046875 C-17.39464355 54.43408691 -17.10959961 53.56348633 -16.81591797 52.66650391 C-16.50541504 51.74530762 -16.19491211 50.82411133 -15.875 49.875 C-15.22770408 47.90152079 -14.58190169 45.92755116 -13.9375 43.953125 C-13.61136719 42.95861328 -13.28523438 41.96410156 -12.94921875 40.93945312 C-11.52254281 36.5214546 -10.19372773 32.07619588 -8.875 27.625 C-7.01166022 21.3646744 -5.12808044 15.11186916 -3.1875 8.875 C-2.98044434 8.20549316 -2.77338867 7.53598633 -2.56005859 6.84619141 C-1.82134672 4.48318468 -1.10923802 2.21847605 0 0 Z M72 63 C72 77.52 72 92.04 72 107 C87.13225276 107.55624209 87.13225276 107.55624209 97.875 100.3125 C102.58994684 92.96272993 102.52146061 85.42556755 101 77 C99.21287896 70.94364538 96.13715853 67.47925737 91 64 C84.98335642 61.99445214 78.3420992 63 72 63 Z " fill="#00A557" transform="translate(1256,55)"/>
<path d="M0 0 C13.7877906 -0.0931126 27.57550509 -0.16397321 41.36354733 -0.20724869 C47.76746244 -0.22802976 54.17116077 -0.25617266 60.57495117 -0.30175781 C66.76713218 -0.3455555 72.95910605 -0.36920819 79.15143013 -0.37950897 C81.50146299 -0.38683987 83.85148588 -0.40115338 86.20142937 -0.42292023 C108.63361155 -0.62224025 128.749231 1.28903868 145.78125 17.546875 C149.51025588 21.66978996 152.33941258 26.13411284 155 31 C155.39960938 31.71671875 155.79921875 32.4334375 156.2109375 33.171875 C164.26223005 49.27446011 164.33186852 70.5785187 159.1953125 87.57421875 C155.53738481 98.05788733 149.33664759 106.38731827 139.796875 112.1875 C138 113 138 113 135 113 C135 113.66 135 114.32 135 115 C135.71414062 115.10957031 136.42828125 115.21914062 137.1640625 115.33203125 C148.11831511 117.91216513 156.89484696 125.5456177 162.72265625 134.8515625 C172.70361549 151.63910863 173.23194192 173.02244531 168.90625 191.70703125 C164.80576281 206.60664633 156.93655216 219.22294608 143.3984375 227.1953125 C128.11467385 235.61901173 111.62237624 238.25729855 94.33959961 238.02172852 C93.2977353 238.01193686 92.25587099 238.00214521 91.18243504 237.99205685 C87.83899661 237.95940983 84.49569626 237.91932627 81.15234375 237.87890625 C79.07654311 237.85753868 77.00073735 237.83666255 74.92492676 237.81628418 C67.26238784 237.73763538 59.59994863 237.64950183 51.9375 237.5625 C34.798125 237.376875 17.65875 237.19125 0 237 C0 180.57 0 124.14 0 66 C-5.94 66 -11.88 66 -18 66 C-18 60.27684145 -17.72124959 57.23161727 -16.09375 52.01171875 C-15.89076294 51.35081741 -15.68777588 50.68991608 -15.4786377 50.00898743 C-14.82824165 47.89885992 -14.1645272 45.79321448 -13.5 43.6875 C-13.0850309 42.34989029 -12.67096363 41.01200047 -12.2578125 39.67382812 C-11.37610583 36.82312029 -10.48861764 33.97429315 -9.59765625 31.12646484 C-7.59720165 24.72198799 -5.62796227 18.30790256 -3.65625 11.89453125 C-3.29623901 10.72371506 -2.93622803 9.55289886 -2.56530762 8.34660339 C-1.70998694 5.56446923 -0.85487402 2.78227143 0 0 Z M70 58 C70 68.23 70 78.46 70 89 C81.43473688 89.87397785 81.43473688 89.87397785 90.50390625 85.671875 C94.01074891 81.75300122 95.13376258 77.57206336 94.86328125 72.37109375 C94.04552264 67.33700174 92.86537286 63.53405519 89 60 C82.73108186 57.13342176 82.73108186 57.13342176 70 58 Z M70 142 C70 153.55 70 165.1 70 177 C84.90278123 177.81872058 84.90278123 177.81872058 97 172 C100.60023181 168.07247439 100.99135503 163.17833501 101 158 C100.57983064 153.72955145 99.48570699 150.62448041 96.8125 147.1875 C87.81135846 140.18661213 82.1662341 142 70 142 Z " fill="#0074B9" transform="translate(18,55)"/>
<path d="M0 0 C24.09 0 48.18 0 73 0 C73.04898438 9.60867187 73.09796875 19.21734375 73.1484375 29.1171875 C73.18385567 35.23308152 73.21975629 41.34896652 73.2578125 47.46484375 C73.31802375 57.15541456 73.3763604 66.84596862 73.421875 76.53662109 C73.45504547 83.59710851 73.49501017 90.657521 73.54279006 97.71792519 C73.56780906 101.44868391 73.58965947 105.17939453 73.60334396 108.91021347 C72.91403954 136.45919503 72.91403954 136.45919503 79 163 C79.66 163 80.32 163 81 163 C81 163.66 81 164.32 81 165 C84.70434697 165.84437321 88.20193757 166.19186639 92 166.25 C93.010625 166.27578125 94.02125 166.3015625 95.0625 166.328125 C98.47305874 165.94715833 100.26341108 165.04180728 103 163 C110.99906715 151.11567167 110.1411203 136.87033728 110.20532227 123.06152344 C110.21492921 121.71001404 110.2249408 120.35850747 110.23532104 119.00700378 C110.26207167 115.37768315 110.28324038 111.74834991 110.30332303 108.11898708 C110.32536943 104.31133741 110.3526658 100.50372524 110.37937927 96.69610596 C110.42905641 89.50354327 110.47408662 82.31095949 110.51740164 75.11835599 C110.57628132 65.38647404 110.64243206 55.65464159 110.70815182 45.92280388 C110.81133517 30.61523607 110.90488387 15.30762498 111 0 C135.09 0 159.18 0 184 0 C184.08060607 36.51902712 184.08060607 36.51902712 184.09765625 51.93945312 C184.1094776 62.54502316 184.12329845 73.15056118 184.15087891 83.75610352 C184.17096472 91.48347972 184.18375202 99.2108297 184.18817699 106.93823129 C184.19075897 111.02067937 184.19672196 115.10305251 184.21146011 119.1854763 C184.34067861 156.51980944 183.97289136 191.19353759 156.5625 219.8125 C137.59303484 237.9643158 112.98198355 244.87832586 87.23828125 244.31640625 C64.01343231 243.27830285 42.43832372 234.61135871 26 218 C24.07378174 215.88044385 22.19804907 213.73994406 20.375 211.53125 C19.05779245 209.87610346 19.05779245 209.87610346 17 209 C10.14660363 198.76956774 5.43796396 187.01103577 3 175 C2.80664062 174.11957031 2.61328125 173.23914063 2.4140625 172.33203125 C-0.46219499 158.22169558 -0.14109062 143.70969392 -0.09765625 129.37890625 C-0.09578596 127.53946471 -0.09436495 125.70002266 -0.09336853 123.86058044 C-0.08959139 119.071834 -0.07980348 114.28311898 -0.06866455 109.49438477 C-0.05834582 104.58675562 -0.05384873 99.67912129 -0.04882812 94.77148438 C-0.03817577 85.18097372 -0.02061926 75.59049441 0 66 C-6.27 66 -12.54 66 -19 66 C-17.87568422 57.00547379 -17.87568422 57.00547379 -16.46875 52.5859375 C-16.15687744 51.59142578 -15.84500488 50.59691406 -15.52368164 49.57226562 C-15.1858667 48.51716797 -14.84805176 47.46207031 -14.5 46.375 C-13.77874343 44.08110754 -13.05874557 41.78681902 -12.33984375 39.4921875 C-11.77112549 37.68186035 -11.77112549 37.68186035 -11.19091797 35.83496094 C-9.93084001 31.79765082 -8.71342186 27.74801727 -7.50390625 23.6953125 C-7.29925751 23.00964203 -7.09460876 22.32397156 -6.88375854 21.61752319 C-6.07616118 18.90847882 -5.26990626 16.19904142 -4.46582031 13.48895264 C-3.90711352 11.60676818 -3.34618524 9.72524358 -2.78515625 7.84375 C-2.46426025 6.76287109 -2.14336426 5.68199219 -1.81274414 4.56835938 C-1 2 -1 2 0 0 Z " fill="#0074B9" transform="translate(362,55)"/>
<path d="M0 0 C0.93147858 0.00359528 1.86295715 0.00719055 2.82266235 0.01089478 C3.79816544 0.01074875 4.77366852 0.01060272 5.7787323 0.01045227 C9.01987899 0.01115184 12.260969 0.01894626 15.50210571 0.02676392 C17.74270089 0.02862794 19.98329648 0.03005192 22.22389221 0.03105164 C28.13404456 0.03487804 34.04417251 0.04470936 39.95431519 0.05575562 C45.98000763 0.06596711 52.005704 0.07054869 58.03140259 0.07559204 C69.86409563 0.08633152 81.69677052 0.10340941 93.52944946 0.12442017 C95.43718849 5.10034615 97.17941169 10.05351553 98.69229126 15.16690063 C98.88878517 15.82817365 99.08527908 16.48944666 99.28772736 17.17075825 C99.93750991 19.36022204 100.58312682 21.55089001 101.22866821 23.74160767 C101.69632517 25.32104493 102.16421159 26.90041427 102.63230896 28.47972107 C103.89930002 32.75745746 105.16246332 37.03631541 106.42480469 41.31542587 C107.48981628 44.92396452 108.55703062 48.53185032 109.62415123 52.13976574 C118.23717619 81.2636552 126.77813569 110.40861386 135.29315567 139.56128883 C139.99751461 155.66713854 144.70732626 171.77104731 149.48648071 187.85488892 C149.67709454 188.49661482 149.86770836 189.13834072 150.06409836 189.79951286 C151.97032445 196.21632084 153.8811271 202.63173242 155.79898071 209.04507446 C156.39275254 211.03766236 156.98650392 213.03025635 157.58023071 215.02285767 C157.96753105 216.31071419 157.96753105 216.31071419 158.36265564 217.62458801 C160.28236985 224.07739389 161.93718932 230.5836355 163.52944946 237.12442017 C153.24640408 237.14754392 142.96336484 237.16533542 132.68029881 237.17623234 C127.90596667 237.1814611 123.13165226 237.18855861 118.35733032 237.19985962 C113.75378685 237.21068876 109.15026047 237.21669706 104.54670525 237.21929741 C102.78635323 237.22115161 101.0260022 237.22477213 99.26565742 237.23015022 C96.80872669 237.23736102 94.35186751 237.23841109 91.89492798 237.23794556 C91.15981491 237.24154083 90.42470184 237.24513611 89.66731262 237.24884033 C84.64350162 237.23847233 84.64350162 237.23847233 83.52944946 236.12442017 C83.48881114 234.45824901 83.48672846 232.79053922 83.52944946 231.12442017 C82.86944946 230.79442017 82.20944946 230.46442017 81.52944946 230.12442017 C80.93179321 227.75332642 80.93179321 227.75332642 80.46694946 224.68692017 C80.3109729 223.69820923 80.15499634 222.70949829 79.99429321 221.69082642 C79.40642663 217.18055589 78.9820342 212.65026753 78.52944946 208.12442017 C61.36944946 208.12442017 44.20944946 208.12442017 26.52944946 208.12442017 C24.92564323 216.91946731 24.92564323 216.91946731 23.32852173 225.71572876 C23.12799194 226.8070813 22.92746216 227.89843384 22.72085571 229.02285767 C22.51661987 230.14353638 22.31238403 231.26421509 22.10195923 232.41885376 C21.52944946 235.12442017 21.52944946 235.12442017 20.52944946 237.12442017 C-5.54055054 237.12442017 -31.61055054 237.12442017 -58.47055054 237.12442017 C-56.22340708 227.01227459 -56.22340708 227.01227459 -54.73617554 222.29629517 C-54.41245972 221.25996948 -54.0887439 220.2236438 -53.75521851 219.15591431 C-53.41377808 218.07302124 -53.07233765 216.99012817 -52.72055054 215.87442017 C-50.16218201 207.67129606 -47.66941207 199.45961701 -45.34555054 191.18692017 C-43.49996236 184.62676086 -41.55227025 178.11353609 -39.47055054 171.62442017 C-36.48877068 162.32690952 -33.81592214 152.95190632 -31.16000366 143.55703735 C-27.60235843 131.00449588 -23.74326191 118.55214665 -19.85385132 106.0987854 C-17.22462076 97.64611231 -14.70583825 89.17011002 -12.32235718 80.64492798 C-9.26230558 69.70793025 -9.26230558 69.70793025 -7.47055054 66.12442017 C-13.74055054 66.12442017 -20.01055054 66.12442017 -26.47055054 66.12442017 C-24.52706376 57.28155532 -22.17358078 48.76616684 -19.47055054 40.12442017 C-18.80270277 37.95811727 -18.13601924 35.79145507 -17.47055054 33.62442017 C-13.47055054 20.62442017 -13.47055054 20.62442017 -12.48226929 17.42129517 C-11.77004017 15.1003632 -11.06496066 12.77723118 -10.36508179 10.45254517 C-10.00801147 9.27176392 -9.65094116 8.09098267 -9.28305054 6.87442017 C-8.95949585 5.79676392 -8.63594116 4.71910767 -8.30258179 3.60879517 C-6.75364805 -1.01619009 -4.56050074 0.00743858 0 0 Z " fill="#00A557" transform="translate(1084.4705505371094,54.875579833984375)"/>
<path d="M0 0 C0.98724029 0.00092179 1.97448057 0.00184359 2.99163723 0.00279331 C4.12050854 0.00141865 5.24937984 0.00004398 6.41245937 -0.00137234 C8.2865649 0.00402058 8.2865649 0.00402058 10.19853115 0.00952244 C11.50565563 0.00937641 12.81278011 0.00923038 14.15951443 0.00907993 C17.7543955 0.00879197 21.34924348 0.01468855 24.94411683 0.02165389 C28.69708703 0.02788757 32.45005791 0.02849124 36.20303249 0.0296793 C43.31453277 0.03279257 50.42601776 0.04100591 57.53751129 0.05102879 C65.63169517 0.06219005 73.72587977 0.06770041 81.82006943 0.07272422 C98.47479676 0.08318852 115.12950869 0.10078789 131.78422451 0.12304783 C132.78422451 2.12304783 132.78422451 2.12304783 132.35038662 4.03637791 C132.09007656 4.81392429 131.8297665 5.59147068 131.56156826 6.39257908 C131.27338223 7.27059177 130.98519619 8.14860447 130.68827724 9.05322361 C130.36931484 10.0043906 130.05035244 10.95555759 129.72172451 11.93554783 C127.24540149 19.50384489 124.87589353 27.08161251 122.72172451 34.74804783 C120.68459293 41.97054294 118.61267323 49.18054578 116.47172451 56.37304783 C116.08971889 57.66976414 116.08971889 57.66976414 115.69999599 58.99267673 C113.90179133 65.005481 113.90179133 65.005481 112.78422451 66.12304783 C111.40262336 66.21583113 110.01634414 66.24051825 108.63163662 66.23657322 C107.75079906 66.23649769 106.86996151 66.23642216 105.96243191 66.23634434 C105.0051469 66.23118305 104.0478619 66.22602177 103.06156826 66.22070408 C102.08635723 66.21928913 101.1111462 66.21787418 100.10638332 66.21641636 C96.97813308 66.21079916 93.84995328 66.19824376 90.72172451 66.18554783 C88.60649117 66.18053504 86.4912567 66.17597175 84.37602139 66.17187595 C79.1787065 66.16167314 73.98154476 66.14210114 68.78422451 66.12304783 C68.78422451 73.05304783 68.78422451 79.98304783 68.78422451 87.12304783 C87.59422451 87.12304783 106.40422451 87.12304783 125.78422451 87.12304783 C124.65916852 96.12349574 124.65916852 96.12349574 123.69047451 99.25976658 C123.46907803 99.98800632 123.24768154 100.71624607 123.01957607 101.46655369 C122.77691006 102.24007175 122.53424404 103.01358982 122.28422451 103.81054783 C121.90088955 105.05880344 121.90088955 105.05880344 121.50981045 106.33227634 C120.93441807 108.20162859 120.3557731 110.06998174 119.77445889 111.93750095 C118.86349444 114.86803945 117.96023954 117.80086047 117.05985928 120.73466587 C116.25398622 123.35947636 115.44561408 125.98351223 114.63651943 128.60733128 C114.23720923 129.90227709 113.83827912 131.19734017 113.43974209 132.49252415 C112.87448995 134.32707965 112.30597309 136.16062826 111.73734951 137.99414158 C111.40896084 139.05560398 111.08057217 140.11706638 110.74223232 141.21069431 C109.8623873 143.88543216 108.82996133 146.50870578 107.78422451 149.12304783 C94.91422451 149.12304783 82.04422451 149.12304783 68.78422451 149.12304783 C68.78422451 156.38304783 68.78422451 163.64304783 68.78422451 171.12304783 C90.23422451 171.12304783 111.68422451 171.12304783 133.78422451 171.12304783 C131.53597184 183.4884375 131.53597184 183.4884375 129.86625576 188.69726658 C129.50225674 189.84856052 129.13825771 190.99985447 128.76322842 192.18603611 C128.37828213 193.38212498 127.99333584 194.57821384 127.59672451 195.81054783 C126.78607869 198.3633106 125.97690863 200.9164671 125.17094326 203.47070408 C124.96904385 204.10905186 124.76714443 204.74739964 124.55912685 205.40509129 C123.21901346 209.666841 121.95716688 213.94543552 120.74125576 218.24414158 C120.27465542 219.8931345 120.27465542 219.8931345 119.79862881 221.57544041 C119.21781923 223.64725496 118.64471269 225.72124874 118.08036709 227.79760838 C117.82021816 228.72226902 117.56006924 229.64692966 117.29203701 230.59961033 C117.07176846 231.40479099 116.8514999 232.20997166 116.62455654 233.03955173 C115.65442575 235.44486729 114.81027359 236.5094705 112.78422451 238.12304783 C110.60346603 238.47657394 110.60346603 238.47657394 108.01965237 238.44584751 C107.04152238 238.44158347 106.06339239 238.43731943 105.0556221 238.43292618 C103.97968638 238.41276349 102.90375067 238.3926008 101.79521084 238.37182713 C100.6450357 238.36227654 99.49486055 238.35272596 98.30983162 238.34288597 C94.57833934 238.30845535 90.84748084 238.25323064 87.11625576 238.19726658 C84.81593615 238.17298867 82.51560176 238.15007047 80.21525478 238.12854099 C71.67555582 238.03904357 63.13614963 237.92318347 54.59672451 237.81054783 C35.51859951 237.58367283 16.44047451 237.35679783 -3.21577549 237.12304783 C-3.21577549 180.69304783 -3.21577549 124.26304783 -3.21577549 66.12304783 C-9.48577549 66.12304783 -15.75577549 66.12304783 -22.21577549 66.12304783 C-20.14431526 57.67786382 -17.91932844 49.2956365 -15.52827549 40.93554783 C-15.18594883 39.73825047 -14.84362217 38.5409531 -14.49092197 37.307374 C-12.03964703 28.81137004 -9.46494606 20.35999944 -6.77827549 11.93554783 C-6.43643223 10.86087254 -6.09458897 9.78619724 -5.74238682 8.67895603 C-2.99380646 0.16625393 -2.99380646 0.16625393 0 0 Z " fill="#0074B8" transform="translate(583.2157754898071,54.876952171325684)"/>
<path d="M0 0 C47.85 0 95.7 0 145 0 C144.33058675 4.68589274 143.69225553 8.47253693 142.34179688 12.88769531 C142.00474731 13.99864563 141.66769775 15.10959595 141.32043457 16.25421143 C140.95687866 17.43360291 140.59332275 18.61299438 140.21875 19.828125 C139.84520386 21.05408386 139.47165771 22.28004272 139.08679199 23.54315186 C138.0988097 26.7852721 137.10458832 30.02544597 136.10906982 33.26525879 C135.09607461 36.5662487 134.08942737 39.86917304 133.08203125 43.171875 C127.34499812 61.96500565 127.34499812 61.96500565 126 66 C115.77 66 105.54 66 95 66 C95 122.43 95 178.86 95 237 C70.91 237 46.82 237 22 237 C22 180.57 22 124.14 22 66 C8.47 66 -5.06 66 -19 66 C-17.66406362 59.3203181 -16.24156005 53.15408872 -14.125 46.75 C-13.58576766 45.08120407 -13.04801573 43.41192908 -12.51171875 41.7421875 C-12.25181152 40.93362305 -11.9919043 40.12505859 -11.72412109 39.29199219 C-10.39105717 35.07257072 -9.20153098 30.8140223 -8.00390625 26.5546875 C-6.81985043 22.3621163 -5.60190463 18.1801976 -4.375 14 C-4.16866943 13.29343262 -3.96233887 12.58686523 -3.74975586 11.85888672 C-2.57825473 7.87207288 -1.31503475 3.94510425 0 0 Z " fill="#00A657" transform="translate(1458,55)"/>
<path d="M0 0 C24.42 0 48.84 0 74 0 C74 56.43 74 112.86 74 171 C92.15 171 110.3 171 129 171 C128.29912688 176.60698494 127.58604469 180.93410293 125.9609375 186.19140625 C125.65821678 187.18090775 125.65821678 187.18090775 125.34938049 188.19039917 C124.69744533 190.31639593 124.0363728 192.43942239 123.375 194.5625 C122.92198357 196.03309247 122.46959602 197.50387881 122.01782227 198.97485352 C121.11235077 201.9206873 120.20364146 204.86549162 119.29248047 207.80957031 C118.11923378 211.6056684 116.96422831 215.40706487 115.81640625 219.2109375 C115.49559082 220.27368896 115.17477539 221.33644043 114.84423828 222.43139648 C114.25217185 224.39427047 113.66067492 226.35731636 113.06982422 228.32055664 C112.80830566 229.18285889 112.54678711 230.04516113 112.27734375 230.93359375 C112.05296631 231.67665771 111.82858887 232.41972168 111.59741211 233.18530273 C111 235 111 235 110 237 C73.7 237 37.4 237 0 237 C0 180.57 0 124.14 0 66 C-6.27 66 -12.54 66 -19 66 C-17.87618753 57.00950027 -17.87618753 57.00950027 -16.80078125 53.80078125 C-16.56423828 53.07753662 -16.32769531 52.35429199 -16.08398438 51.60913086 C-15.82939453 50.85124268 -15.57480469 50.09335449 -15.3125 49.3125 C-12.8004636 41.61900838 -10.49168164 33.89190328 -8.35668945 26.08520508 C-5.89571424 17.25316818 -2.91487084 8.74461252 0 0 Z " fill="#0074B9" transform="translate(212,55)"/>
<path d="M0 0 C3.71623225 1.49475119 5.45582311 3.53880479 7.875 6.6875 C11.75435552 11.56880826 15.84672374 16.15270797 20.125 20.6875 C25.2995234 26.18185849 30.36893836 31.72300798 35.25439453 37.47753906 C41.20362264 44.48270867 47.22046684 51.38314315 53.49438477 58.09985352 C57.66986883 62.59113622 61.66085888 67.22304702 65.62963867 71.89697266 C69.58251394 76.54259306 73.65050845 81.06263779 77.7734375 85.55859375 C79.69133207 87.66154833 81.57376045 89.78669156 83.4375 91.9375 C85.89011968 94.76522622 88.40391762 97.52791225 90.94873047 100.27294922 C96.5533811 106.32274841 101.81987976 112.580279 107 119 C110.48808668 123.60531265 110.48808668 123.60531265 115 127 C114.38722388 129.96175123 113.74627478 131.38058783 112 134 C111.34 134 110.68 134 110 134 C109.66548828 134.81210937 109.66548828 134.81210937 109.32421875 135.640625 C107.57919306 138.74975631 105.24686543 141.1785332 102.8125 143.75 C101.81051284 144.82488262 100.80920995 145.90040352 99.80859375 146.9765625 C99.32374512 147.49637695 98.83889648 148.01619141 98.33935547 148.55175781 C96.64911801 150.37940794 95.00607471 152.24446681 93.375 154.125 C88.5815447 159.64888658 83.67369865 165.07188366 78.7421875 170.47265625 C74.98901352 174.59853218 71.35484723 178.76541611 67.875 183.125 C63.3620039 188.71478113 58.45861049 193.88429514 53.51367188 199.09179688 C49.21835129 203.63749796 45.20962109 208.32129965 41.3125 213.21484375 C37.40762238 217.91784669 33.18484495 222.32457738 29.00390625 226.78125 C26.17558394 229.7985917 23.43687126 232.88177854 20.73828125 236.015625 C18.5355375 238.53021787 16.26502826 240.97890861 14 243.4375 C10.1919955 247.5937976 6.69355656 251.86293078 3.375 256.41796875 C2.92125 256.94003906 2.4675 257.46210938 2 258 C1.34 258 0.68 258 0 258 C0.49134661 250.53881066 2.94615614 244.18810782 5.625 237.25 C6.54566407 234.81693299 7.46492707 232.38333537 8.3828125 229.94921875 C8.83301758 228.75989746 9.28322266 227.57057617 9.74707031 226.34521484 C11.39714799 221.93964892 12.96392251 217.50886824 14.5 213.0625 C17.2278363 205.19271254 20.00741814 197.34260414 22.8125 189.5 C23.23370117 188.32211914 23.65490234 187.14423828 24.08886719 185.93066406 C24.95374969 183.51279042 25.81882342 181.09498517 26.68408203 178.67724609 C28.00748842 174.97907411 29.33012793 171.28062906 30.65234375 167.58203125 C31.08474365 166.37321289 31.51714355 165.16439453 31.96264648 163.91894531 C32.81262347 161.53778469 33.65984777 159.15563946 34.50415039 156.77246094 C36.28909866 151.739445 38.08896774 146.72077386 40.03125 141.74609375 C40.32612305 140.97289795 40.62099609 140.19970215 40.92480469 139.40307617 C41.44896106 138.03546226 41.98950079 136.67392914 42.55175781 135.3215332 C45.51673951 127.47748113 41.0650074 119.03333945 38.375 111.55078125 C38.02743652 110.57513718 37.67987305 109.5994931 37.32177734 108.59428406 C36.5906178 106.54392038 35.85767756 104.49419091 35.12304688 102.44506836 C34.00018069 99.31300402 32.8824183 96.17915615 31.765625 93.04492188 C31.0523775 91.04676997 30.33884562 89.04871955 29.625 87.05078125 C29.29161621 86.11736404 28.95823242 85.18394684 28.61474609 84.22224426 C27.14257627 80.11751704 25.62972469 76.04513055 24 72 C23.31433707 70.07425798 22.64065002 68.14422583 21.9765625 66.2109375 C21.40421875 64.54998047 21.40421875 64.54998047 20.8203125 62.85546875 C20.42585938 61.70691406 20.03140625 60.55835938 19.625 59.375 C18.84722653 57.1116792 18.06858841 54.84865533 17.2890625 52.5859375 C16.72106934 50.93609863 16.72106934 50.93609863 16.14160156 49.25292969 C14.72676674 45.22143714 13.23266563 41.22183232 11.71240234 37.22900391 C11 35 11 35 11 32 C10.34 31.67 9.68 31.34 9 31 C8.03105904 28.56590285 7.17583932 26.17615475 6.375 23.6875 C6.14554688 23.01009766 5.91609375 22.33269531 5.6796875 21.63476562 C4.55769099 18.21868696 4 15.6334852 4 12 C3.34 11.67 2.68 11.34 2 11 C1.1484375 8.71484375 1.1484375 8.71484375 0.375 5.9375 C0.11460938 5.01839844 -0.14578125 4.09929688 -0.4140625 3.15234375 C-0.60742188 2.44207031 -0.80078125 1.73179688 -1 1 C-0.67 0.67 -0.34 0.34 0 0 Z " fill="#00A457" transform="translate(1635,48)"/>
<path d="M0 0 C0.66 0 1.32 0 2 0 C2.22042969 1.73443359 2.22042969 1.73443359 2.4453125 3.50390625 C5.28951988 24.98932136 9.46695766 46.33056265 14.52685547 67.40209961 C14.72166504 68.22202393 14.91647461 69.04194824 15.1171875 69.88671875 C15.28847168 70.59014404 15.45975586 71.29356934 15.63623047 72.01831055 C16 74 16 74 16 78 C6.1 78 -3.8 78 -14 78 C-12.16311596 69.08771075 -10.3235221 60.20194778 -8.13256836 51.37011719 C-3.96870076 34.53465713 -0.61163556 17.37044999 0 0 Z " fill="#F2FAF6" transform="translate(1135,128)"/>
<path d="M0 0 C0.33 0 0.66 0 1 0 C0.88557539 1.60495567 0.75805306 3.20898119 0.625 4.8125 C0.55539062 5.70582031 0.48578125 6.59914062 0.4140625 7.51953125 C0 10 0 10 -2 13 C-2.33 11.02 -2.66 9.04 -3 7 C-2.34 7 -1.68 7 -1 7 C-0.67 4.69 -0.34 2.38 0 0 Z " fill="#006F41" transform="translate(1026,200)"/>
<path d="M0 0 C0.66 0 1.32 0 2 0 C1.34 3.63 0.68 7.26 0 11 C-0.66 10.67 -1.32 10.34 -2 10 C-1.46274105 6.62294375 -0.88935377 3.303314 0 0 Z " fill="#007243" transform="translate(1109,263)"/>
</svg>
