<?xml version="1.0" encoding="UTF-8"?>
<svg version="1.1" xmlns="http://www.w3.org/2000/svg" width="2000" height="882">
<path d="M0 0 C109.56 0 219.12 0 332 0 C332 41.58 332 83.16 332 126 C271.94 126.33 211.88 126.66 150 127 C150 152.08 150 177.16 150 203 C161.97152344 202.98839844 173.94304687 202.97679687 186.27734375 202.96484375 C193.83789084 202.95973738 201.39843669 202.95488239 208.95898438 202.95117188 C220.97323023 202.94522842 232.9874691 202.93822546 245.00170898 202.92456055 C253.74995302 202.91461507 262.49819141 202.9081469 271.24644095 202.90591151 C275.88154999 202.90460417 280.51664287 202.90151685 285.15174675 202.89426994 C289.50925479 202.88751187 293.86673992 202.8853826 298.2242527 202.88689232 C299.82832844 202.88661589 301.43240491 202.88460951 303.03647614 202.88079453 C305.2169273 202.87586059 307.39729057 202.87700058 309.57774353 202.87974548 C310.80096282 202.87882369 312.02418211 202.8779019 313.28446865 202.87695217 C316 203 316 203 317 204 C317.12380838 206.05478453 317.17798203 208.1137896 317.20532227 210.17211914 C317.21522186 210.81600082 317.22512146 211.45988251 317.23532104 212.12327576 C317.26701528 214.26053131 317.29172449 216.39780913 317.31640625 218.53515625 C317.33696896 220.01346936 317.35796524 221.49177649 317.37937927 222.97007751 C317.43467059 226.86792171 317.48404857 230.76581958 317.53222656 234.66375732 C317.58239019 238.63851723 317.63810301 242.61319884 317.69335938 246.58789062 C317.80102724 254.39186085 317.90245287 262.19589602 318 270 C318.33471313 269.51807693 318.66942627 269.03615387 319.01428223 268.53962708 C320.55779501 266.32191586 322.10697522 264.10822058 323.65625 261.89453125 C324.18250977 261.13660278 324.70876953 260.37867432 325.25097656 259.59777832 C329.99002121 252.84099427 335.22528137 246.90559044 341 241 C341.92042203 240.01930834 342.83967991 239.03752288 343.7578125 238.0546875 C366.30786365 214.27583549 397.31901188 197.67208246 428.9152832 189.54663086 C430.45250224 189.14355867 431.98420438 188.71930426 433.51245117 188.28344727 C468.22185555 178.43511488 508.80865796 178.56976696 544 186 C545.31194336 186.27287842 545.31194336 186.27287842 546.65039062 186.55126953 C577.01469691 193.13098656 605.88787216 207.26930673 629 228 C629.88300781 228.76183594 630.76601563 229.52367187 631.67578125 230.30859375 C655.92330682 251.46389989 673.9145455 280.54326322 684 311 C684 311.99 684 312.98 684 314 C684.66 314 685.32 314 686 314 C686.226875 312.7625 686.45375 311.525 686.6875 310.25 C691.70453007 288.28354401 705.93743337 266.98374767 719.74023438 249.58886719 C720.95437045 248.05754983 722.15710794 246.51721599 723.359375 244.9765625 C727.23787429 240.09500305 731.12836733 235.6958264 735.9375 231.72265625 C738.19391652 229.83803563 740.30005967 227.83079247 742.4375 225.8125 C767.24832878 203.44834771 798.19661479 190.05439915 831 185 C832.22203125 184.79503906 833.4440625 184.59007812 834.703125 184.37890625 C871.30835675 178.91824925 912.03069318 184.70528532 943 206 C946.51530305 208.68015459 949.85673943 211.54919215 953.16015625 214.484375 C955.00861142 216.12179608 956.91200622 217.69982518 958.87109375 219.203125 C959.92490234 220.09257812 959.92490234 220.09257812 961 221 C961 221.66 961 222.32 961 223 C961.66 223 962.32 223 963 223 C963.66 223.99 964.32 224.98 965 226 C965.495 114.13 965.495 114.13 966 0 C1112.52 0 1259.04 0 1410 0 C1410 41.58 1410 83.16 1410 126 C1407.02403436 127.48798282 1404.36098988 127.10342921 1401.03988647 127.08229065 C1400.31538886 127.07906152 1399.59089124 127.07583239 1398.84443915 127.07250541 C1396.40454104 127.06039309 1393.96475343 127.04102807 1391.52490234 127.02172852 C1389.78078962 127.01158967 1388.03667426 127.00189557 1386.29255676 126.99261475 C1381.54692262 126.96609429 1376.80134947 126.93332288 1372.05576277 126.89946485 C1367.10031736 126.86516081 1362.14483922 126.83655608 1357.18936157 126.80735779 C1347.80062667 126.75116654 1338.41193277 126.68981814 1329.02324259 126.62663645 C1318.33660378 126.55496978 1307.64993211 126.48902257 1296.96325374 126.42356598 C1274.97545833 126.28876066 1252.98772422 126.14598456 1231 126 C1231 151.41 1231 176.82 1231 203 C1241.38412354 202.9685791 1251.76824707 202.9371582 1262.46704102 202.90478516 C1295.6824073 202.80851003 1328.89777412 202.74175589 1362.11324367 202.69360802 C1367.27154106 202.68610367 1372.42983802 202.67833775 1377.58813477 202.67041016 C1378.61507007 202.66883629 1379.64200538 202.66726243 1380.70005994 202.66564088 C1397.33376956 202.63952438 1413.96735491 202.59221217 1430.60099078 202.53708322 C1447.66533409 202.48099796 1464.72961226 202.44765235 1481.79404396 202.43546903 C1492.32598788 202.42723133 1502.85758057 202.40120235 1513.38941639 202.3525012 C1520.60894957 202.32081489 1527.82830085 202.31119273 1535.04789854 202.31899174 C1539.21498005 202.32283944 1543.38144733 202.31689185 1547.54841995 202.28476715 C1551.36406808 202.25556559 1555.17868908 202.2540947 1558.99438452 202.27460663 C1561.02727857 202.27834177 1563.06016055 202.2524646 1565.09287935 202.22551215 C1574.97908037 202.3229391 1574.97908037 202.3229391 1579.25457668 205.92546654 C1580.20217335 206.92037861 1581.12351148 207.94190863 1582 209 C1582.60328125 209.63164062 1583.2065625 210.26328125 1583.828125 210.9140625 C1584.53195312 211.76097656 1584.53195312 211.76097656 1585.25 212.625 C1588.21793379 216.11198947 1591.2723112 219.50801401 1594.375 222.875 C1595.31911326 223.90355144 1596.26312377 224.93219721 1597.20703125 225.9609375 C1599.01320085 227.92800332 1600.82368024 229.89079493 1602.63671875 231.8515625 C1603.83748047 233.16253906 1603.83748047 233.16253906 1605.0625 234.5 C1606.13177734 235.66015625 1606.13177734 235.66015625 1607.22265625 236.84375 C1608.86446836 238.8355748 1609.96755844 240.64624722 1611 243 C1611.66 243 1612.32 243 1613 243 C1614.41015625 244.3984375 1614.41015625 244.3984375 1616.0625 246.375 C1618.7907947 249.58342938 1621.55144446 252.74980367 1624.375 255.875 C1627.37951464 259.20432704 1630.37970059 262.53738066 1633.375 265.875 C1636.81949831 269.70020601 1640.27793204 273.51232572 1643.75 277.3125 C1644.63171875 278.27800781 1645.5134375 279.24351562 1646.421875 280.23828125 C1648.89548949 282.88804708 1651.42116321 285.45363058 1654 288 C1658.76539221 282.72673152 1663.51235412 277.44137714 1668.171875 272.07421875 C1671.05721917 268.80046286 1674.02284949 265.59939889 1676.984375 262.39453125 C1679.04620624 260.08305532 1679.04620624 260.08305532 1680.453125 257.51171875 C1682.2908167 254.52779005 1684.47757985 252.43049522 1687 250 C1688.98321579 247.9187884 1690.92887645 245.80337985 1692.875 243.6875 C1693.40673828 243.10991943 1693.93847656 242.53233887 1694.48632812 241.93725586 C1698.39338905 237.68254284 1702.23558119 233.38166158 1706 229 C1707.01813656 227.82413856 1708.03637569 226.64836592 1709.0546875 225.47265625 C1710.16171595 224.19032652 1711.26848489 222.90777272 1712.375 221.625 C1713.1803418 220.69506226 1713.1803418 220.69506226 1714.00195312 219.74633789 C1716.79140687 216.57504239 1716.79140687 216.57504239 1719 213 C1719.66 213 1720.32 213 1721 213 C1721.20625 212.46375 1721.4125 211.9275 1721.625 211.375 C1723.69604701 207.79773698 1725.40299136 205.08404142 1729 203 C1734.17315508 202.10238667 1739.32272211 202.24143254 1744.55224609 202.31884766 C1746.14916927 202.32054108 1747.74609711 202.31958818 1749.34301758 202.31619263 C1753.66938166 202.31447319 1757.99474485 202.34971387 1762.3208766 202.39163637 C1766.84518305 202.42917953 1771.36951322 202.43267155 1775.89395142 202.43978882 C1784.45755347 202.45842718 1793.02069518 202.50765039 1801.58409464 202.56788576 C1811.33489002 202.63498243 1821.08570755 202.66794782 1830.83667636 202.69805837 C1850.89137437 202.76075043 1870.94565817 202.86626573 1891 203 C1890.13866302 207.5296335 1887.49012637 210.02637501 1884.375 213.25 C1883.27138676 214.41726137 1882.16851809 215.58522718 1881.06640625 216.75390625 C1880.53418457 217.31480957 1880.00196289 217.87571289 1879.45361328 218.45361328 C1877.69352982 220.32602992 1875.9936449 222.24404881 1874.3125 224.1875 C1869.4531372 229.79806865 1864.4813678 235.30963491 1859.44921875 240.765625 C1854.80812248 245.80815145 1850.41254532 250.87604957 1846.375 256.41796875 C1845.92125 256.94003906 1845.4675 257.46210938 1845 258 C1844.34 258 1843.68 258 1843 258 C1842.7525 258.556875 1842.505 259.11375 1842.25 259.6875 C1840.77075182 262.42410913 1839.06532561 264.67650869 1837 267 C1836.34 267 1835.68 267 1835 267 C1834.72760498 267.59530518 1834.45520996 268.19061035 1834.17456055 268.80395508 C1833.02967324 270.94452072 1831.8825856 272.39719721 1830.20703125 274.13671875 C1829.38972534 274.99692627 1829.38972534 274.99692627 1828.5559082 275.87451172 C1827.9805835 276.47279785 1827.40525879 277.07108398 1826.8125 277.6875 C1822.31076538 282.43041005 1818.09128349 287.20201033 1814.26953125 292.5234375 C1813.85058594 293.01070313 1813.43164062 293.49796875 1813 294 C1812.34 294 1811.68 294 1811 294 C1810.7525 294.556875 1810.505 295.11375 1810.25 295.6875 C1808.77075182 298.42410913 1807.06532561 300.67650869 1805 303 C1804.34 303 1803.68 303 1803 303 C1802.72760498 303.59530518 1802.45520996 304.19061035 1802.17456055 304.80395508 C1801.02967324 306.94452072 1799.8825856 308.39719721 1798.20703125 310.13671875 C1797.38972534 310.99692627 1797.38972534 310.99692627 1796.5559082 311.87451172 C1795.9805835 312.47279785 1795.40525879 313.07108398 1794.8125 313.6875 C1790.31076538 318.43041005 1786.09128349 323.20201033 1782.26953125 328.5234375 C1781.85058594 329.01070313 1781.43164062 329.49796875 1781 330 C1780.34 330 1779.68 330 1779 330 C1778.72760498 330.59458008 1778.45520996 331.18916016 1778.17456055 331.80175781 C1777.02970512 333.94440556 1775.87355302 335.42006637 1774.20703125 337.171875 C1773.66264404 337.74969727 1773.11825684 338.32751953 1772.55737305 338.92285156 C1771.98156494 339.52581055 1771.40575684 340.12876953 1770.8125 340.75 C1769.62685772 342.00971453 1768.44195521 343.27012576 1767.2578125 344.53125 C1766.69094727 345.13324219 1766.12408203 345.73523438 1765.54003906 346.35546875 C1760.24596268 352.00875006 1755.41011718 357.94829507 1750.69921875 364.09375 C1749.85810547 365.03734375 1749.85810547 365.03734375 1749 366 C1748.34 366 1747.68 366 1747 366 C1746.77570313 366.54140625 1746.55140625 367.0828125 1746.3203125 367.640625 C1744.58851134 370.73532294 1742.28380732 373.17925605 1739.875 375.75 C1739.40707031 376.25660156 1738.93914062 376.76320313 1738.45703125 377.28515625 C1737.30873459 378.52719141 1736.15491328 379.76411494 1735 381 C1739.17493454 385.92428176 1743.45300857 390.74132949 1747.78125 395.53125 C1750.24941399 398.27751697 1752.67490725 401.05800034 1755.09375 403.84765625 C1756.59351151 405.54103451 1758.12007927 407.21067392 1759.65625 408.87109375 C1760.11588135 409.36810791 1760.5755127 409.86512207 1761.04907227 410.37719727 C1762.38178071 411.81489135 1763.72006939 413.24740659 1765.05859375 414.6796875 C1767 417 1767 417 1767 419 C1767.66 419 1768.32 419 1769 419 C1770.7265625 420.6796875 1770.7265625 420.6796875 1772.625 422.875 C1773.25664063 423.59429687 1773.88828125 424.31359375 1774.5390625 425.0546875 C1776 427 1776 427 1776 429 C1776.66 429 1777.32 429 1778 429 C1779.30863371 430.47068414 1780.5446856 432.00601318 1781.75 433.5625 C1785.67611446 438.47967248 1789.8075938 443.11111803 1794.125 447.6875 C1798.26282814 452.0768496 1802.36056091 456.47438893 1806.296875 461.046875 C1808.49365905 463.56612276 1810.74689619 466.03102996 1813 468.5 C1816.45328153 472.28662998 1819.86099051 476.1047632 1823.22265625 479.97265625 C1826.05432947 483.20263076 1828.94202507 486.38190656 1831.8203125 489.5703125 C1833.69145094 491.6560618 1835.53924831 493.75817628 1837.375 495.875 C1839.85037558 498.72282793 1842.3855591 501.50744833 1844.95043945 504.27490234 C1849.01370017 508.66057775 1852.94116395 513.08487342 1856.6875 517.75 C1859.94918794 521.80240017 1863.37890862 525.48962416 1867.10546875 529.11328125 C1869.58986131 531.58742889 1871.86592786 534.21098681 1874.15234375 536.8671875 C1876.2371655 539.27376821 1878.36521533 541.63764945 1880.5 544 C1881.2528125 544.83660156 1882.005625 545.67320312 1882.78125 546.53515625 C1884.21587071 548.12889862 1885.65319134 549.72021657 1887.09375 551.30859375 C1887.7228125 552.01113281 1888.351875 552.71367188 1889 553.4375 C1889.8353125 554.36369141 1889.8353125 554.36369141 1890.6875 555.30859375 C1892 557 1892 557 1893 560 C1870.93850444 560.16351058 1848.87710877 560.28695569 1826.81513023 560.3626852 C1816.57137168 560.3987822 1806.32798958 560.44799626 1796.08447266 560.52807617 C1787.15635701 560.59783952 1778.22851398 560.64300589 1769.30013335 560.65861946 C1764.57230802 560.66774677 1759.84526261 560.68920067 1755.11768723 560.7401104 C1750.66713171 560.78764839 1746.21767677 560.80227631 1741.76689148 560.79175377 C1740.13421775 560.79367851 1738.50150698 560.80759013 1736.86905289 560.83443832 C1724.51230912 561.02768379 1724.51230912 561.02768379 1720.74776077 558.46949959 C1719.22902132 556.71328031 1718.12817915 555.01995857 1717 553 C1716.236875 552.236875 1715.47375 551.47375 1714.6875 550.6875 C1712.11770394 548.11770394 1709.64343179 545.49100061 1707.1875 542.8125 C1706.39730469 541.95269531 1705.60710937 541.09289062 1704.79296875 540.20703125 C1703 538 1703 538 1703 536 C1702.34 536 1701.68 536 1701 536 C1699.4921875 534.5390625 1699.4921875 534.5390625 1697.875 532.625 C1697.06675781 531.68527344 1697.06675781 531.68527344 1696.2421875 530.7265625 C1695 529 1695 529 1695 527 C1694.34 527 1693.68 527 1693 527 C1691.56450274 525.40665761 1690.20172673 523.74748918 1688.875 522.0625 C1684.14186931 516.14799208 1679.32334725 510.31699286 1673.95703125 504.9609375 C1672.21597095 503.21640203 1670.600984 501.4344839 1669 499.5625 C1665.21599147 495.19696635 1661.29512431 490.96538626 1657.3515625 486.74438477 C1654.90214693 484.11086016 1652.52863576 481.45393107 1650.2578125 478.6640625 C1648.27962282 475.97598029 1648.27962282 475.97598029 1646 475 C1646 475.66 1646 476.32 1646 477 C1645.34 477 1644.68 477 1644 477 C1643.78472656 477.53496094 1643.56945313 478.06992187 1643.34765625 478.62109375 C1641.50749742 481.86937411 1639.00157733 484.38419927 1636.4375 487.0625 C1632.65597402 491.07836454 1629.00641818 495.12300027 1625.5625 499.4375 C1620.98085598 505.14577779 1616.01197564 510.44296038 1611.0078125 515.77734375 C1608.15453222 518.82137013 1605.38811991 521.92966877 1602.6640625 525.08984375 C1600.68459874 527.36204511 1598.6541683 529.58459872 1596.625 531.8125 C1593.51471149 535.25378205 1590.53521688 538.76321298 1587.625 542.375 C1586.90479575 543.22997786 1586.1845915 544.08495573 1585.44256288 544.96584201 C1582.96259824 547.93519114 1582.96259824 547.93519114 1580.99740285 551.12358403 C1577.84437822 555.48983262 1574.9681624 559.13794852 1569.6360475 560.68656915 C1562.36545791 561.83070972 1555.00681804 561.55653364 1547.6710968 561.4430542 C1545.16195826 561.4482894 1542.65282612 561.45880061 1540.14372891 561.47412419 C1534.69480256 561.49534313 1529.24795239 561.47942677 1523.79924011 561.4304657 C1515.69785134 561.35787111 1507.59745137 561.35445138 1499.49579663 561.36496956 C1485.86631015 561.38071678 1472.23752309 561.34071571 1458.60824013 561.26876068 C1445.11680957 561.19771627 1431.62567044 561.15156146 1418.13405418 561.13852692 C1416.87499917 561.1372896 1416.87499917 561.1372896 1415.59050869 561.13602729 C1411.32764028 561.1319672 1407.06477162 561.12835063 1402.80190267 561.12490478 C1372.620748 561.09971072 1342.43997368 561.0188933 1312.2590332 560.90527344 C1282.94167094 560.79503213 1253.62441282 560.71004274 1224.30688477 560.65917969 C1223.40293367 560.65760137 1222.49898258 560.65602306 1221.56763902 560.65439692 C1212.48965526 560.63857446 1203.41167068 560.62326472 1194.33368542 560.60833061 C1175.84136313 560.57789738 1157.34904763 560.54404236 1138.85673523 560.50811768 C1138.00651913 560.5064702 1137.15630303 560.50482272 1136.28032281 560.50312531 C1079.52005391 560.3927477 1022.76000812 560.2016856 966 560 C965.67 549.44 965.34 538.88 965 528 C963.164375 530.165625 961.32875 532.33125 959.4375 534.5625 C937.64463186 559.99138815 907.77408422 577.89974068 873.875 580.75 C866.58132137 581.09969692 859.29961462 581.15690062 852 581 C850.79214844 580.98324219 849.58429687 580.96648438 848.33984375 580.94921875 C827.07697974 580.17962181 805.48800946 574.38546561 786 566 C786 565.34 786 564.68 786 564 C784.89990601 563.82694336 784.89990601 563.82694336 783.77758789 563.65039062 C780.94898924 562.98805549 779.03999651 562.07927478 776.55859375 560.59375 C775.73343262 560.10165039 774.90827148 559.60955078 774.05810547 559.10253906 C773.19330566 558.57370117 772.32850586 558.04486328 771.4375 557.5 C770.54434082 556.95827148 769.65118164 556.41654297 768.73095703 555.85839844 C761.81852094 551.61402996 755.33812321 547.06861782 749 542 C747.54207031 540.88044922 747.54207031 540.88044922 746.0546875 539.73828125 C740.80854078 535.66849891 740.80854078 535.66849891 739 534 C739 533.34 739 532.68 739 532 C738.46246094 531.79375 737.92492187 531.5875 737.37109375 531.375 C734.04948636 529.44879604 731.64082413 526.79731889 729.0625 524 C728.49692383 523.38697021 727.93134766 522.77394043 727.34863281 522.14233398 C710.28488155 503.22269933 696.58007354 480.33138962 687.91015625 456.37890625 C687.21595091 454.08003501 687.21595091 454.08003501 686 453 C685.75878418 453.54825439 685.51756836 454.09650879 685.26904297 454.66137695 C675.00063007 477.93009862 663.07255623 499.82222685 645.46484375 518.3828125 C643.49356705 520.47592722 641.6338744 522.5913117 639.8125 524.8125 C620.99340006 546.92760049 591.21672805 561.56349767 564 570 C563.29536621 570.22139648 562.59073242 570.44279297 561.86474609 570.67089844 C542.68418066 576.56129982 522.04007215 579.45530948 502 580 C500.68644531 580.0515625 499.37289063 580.103125 498.01953125 580.15625 C484.5574734 580.52492558 471.31592746 578.82449064 458 577 C456.79512939 576.83975342 456.79512939 576.83975342 455.56591797 576.67626953 C421.12114794 571.94215422 389.42402998 557.21461437 361.87207031 536.41113281 C360.29848399 535.22499184 358.70954272 534.05926014 357.1171875 532.8984375 C352.78806232 529.68461236 349.29178968 526.27212317 345.8515625 522.125 C343.83997803 519.8163461 341.67043463 517.78223998 339.4375 515.6875 C324.8097324 501.17105483 312.71510329 482.08865879 305 463 C304.5963623 462.00830811 304.5963623 462.00830811 304.18457031 460.99658203 C293.49695899 434.60389301 288.77162833 408.96255511 288.6875 380.5625 C288.68421692 379.65792053 288.68093384 378.75334106 288.67755127 377.8213501 C288.65643674 359.7915337 290.02272994 342.4204452 295 325 C247.15 325.33 199.3 325.66 150 326 C150 403.22 150 480.44 150 560 C100.5 560 51 560 0 560 C0 375.2 0 190.4 0 0 Z M1410 208 C1410 246.61 1410 285.22 1410 325 C1350.93 325 1291.86 325 1231 325 C1231 360.64 1231 396.28 1231 433 C1289.74 433.33 1348.48 433.66 1409 434 C1409.33 474.26 1409.66 514.52 1410 556 C1411.65 554.35 1413.3 552.7 1415 551 C1415.62003906 550.3915625 1416.24007813 549.783125 1416.87890625 549.15625 C1420.15245611 545.93586685 1423.32205896 542.74911746 1426 539 C1426 538.34 1426 537.68 1426 537 C1426.66 537 1427.32 537 1428 537 C1429.43467016 535.62042584 1429.43467016 535.62042584 1430.9375 533.75 C1433.99656767 530.14398884 1437.15581131 526.6501193 1440.375 523.1875 C1443.80972608 519.47578925 1447.09613869 515.70720334 1450.25 511.75 C1454.65463945 506.27374881 1459.43802266 501.21673484 1464.27148438 496.12304688 C1468.90570723 491.21977004 1473.34811674 486.19295387 1477.69555664 481.03491211 C1481.55727643 476.46614473 1485.57142689 472.05844332 1489.70019531 467.72949219 C1492.26572884 465.28335332 1492.26572884 465.28335332 1493 462 C1493.66 462 1494.32 462 1495 462 C1496.50273886 460.55316948 1496.50273886 460.55316948 1498.0625 458.625 C1500.77923786 455.42453655 1503.54335219 452.28693937 1506.375 449.1875 C1510.37153376 444.76812478 1514.1443497 440.20050973 1517.859375 435.54296875 C1520 433 1520 433 1522.765625 430.30078125 C1525.23222608 428.29540267 1525.23222608 428.29540267 1525 426 C1525.66 426 1526.32 426 1527 426 C1530.02517909 422.94441577 1530.02517909 422.94441577 1531 419 C1531.54527344 418.80148437 1532.09054687 418.60296875 1532.65234375 418.3984375 C1535.97796244 416.41745332 1538.13725369 413.57942678 1540.5625 410.625 C1541.62845419 409.35269496 1542.69619962 408.08188875 1543.765625 406.8125 C1544.30380859 406.173125 1544.84199219 405.53375 1545.39648438 404.875 C1547.80165995 402.06261443 1550.29737278 399.33894455 1552.8125 396.625 C1556.95329188 392.14814385 1561.01909729 387.61947755 1565 383 C1564.20882096 381.00016466 1564.20882096 381.00016466 1563 379 C1562.01 378.67 1561.02 378.34 1560 378 C1559.566875 376.8553125 1559.566875 376.8553125 1559.125 375.6875 C1557.71387097 372.31646954 1555.85045476 371.25384795 1553 369 C1552.07135063 367.77418284 1551.17613626 366.52245816 1550.3125 365.25 C1549.549375 364.1775 1548.78625 363.105 1548 362 C1547.34 362 1546.68 362 1546 362 C1545.77441406 361.45472656 1545.54882812 360.90945313 1545.31640625 360.34765625 C1543.60859886 357.30198194 1541.32959113 354.94662661 1538.9375 352.4375 C1534.42085164 347.61740564 1530.17817516 342.65043751 1526.0703125 337.47265625 C1523.9727957 334.89304286 1523.9727957 334.89304286 1521.3046875 332.30859375 C1519 330 1519 330 1518 328 C1517.34 328 1516.68 328 1516 328 C1515.72687988 327.40396973 1515.45375977 326.80793945 1515.17236328 326.19384766 C1514.03614671 324.06764147 1512.9052745 322.62585197 1511.2421875 320.8984375 C1510.70247314 320.33012207 1510.16275879 319.76180664 1509.60668945 319.17626953 C1508.74950317 318.28464111 1508.74950317 318.28464111 1507.875 317.375 C1503.09882256 312.34181149 1498.65708281 307.2477634 1494.48828125 301.6953125 C1493.99714844 301.13585937 1493.50601562 300.57640625 1493 300 C1492.34 300 1491.68 300 1491 300 C1491 299.34 1491 298.68 1491 298 C1490.34 298 1489.68 298 1489 298 C1489 297.34 1489 296.68 1489 296 C1488.34 296 1487.68 296 1487 296 C1486.67 294.68 1486.34 293.36 1486 292 C1485.34 292 1484.68 292 1484 292 C1483.34 290.68 1482.68 289.36 1482 288 C1481.34 288 1480.68 288 1480 288 C1479.63068359 287.15115234 1479.63068359 287.15115234 1479.25390625 286.28515625 C1477.78463776 283.60751742 1476.02247565 281.66956388 1473.9375 279.4375 C1469.68380776 274.82647012 1465.78062936 270.01723011 1461.9453125 265.0546875 C1461.30335938 264.37664062 1460.66140625 263.69859375 1460 263 C1459.01 263 1458.02 263 1457 263 C1456.90525391 262.18789063 1456.90525391 262.18789063 1456.80859375 261.359375 C1455.66112936 258.01121803 1453.43664264 255.78730251 1451.0625 253.25 C1450.60681641 252.74339844 1450.15113281 252.23679688 1449.68164062 251.71484375 C1448.50093297 250.43214232 1447.25448188 249.21064807 1446 248 C1445.34 248 1444.68 248 1444 248 C1443.7628125 247.28457031 1443.525625 246.56914062 1443.28125 245.83203125 C1441.79179731 242.53979589 1439.93205153 240.35249153 1437.5 237.6875 C1436.30890625 236.36298828 1436.30890625 236.36298828 1435.09375 235.01171875 C1433.24356686 232.7690534 1433.24356686 232.7690534 1431 233 C1430.01 230.525 1430.01 230.525 1429 228 C1428.34 228 1427.68 228 1427 228 C1427 227.34 1427 226.68 1427 226 C1426.34 226 1425.68 226 1425 226 C1424.5978125 225.13375 1424.5978125 225.13375 1424.1875 224.25 C1422.97070811 221.94449957 1421.69666121 219.97943808 1420 218 C1419.34 218 1418.68 218 1418 218 C1417.6596875 217.195625 1417.6596875 217.195625 1417.3125 216.375 C1415.55615049 213.19684374 1413.41020825 210.71920931 1411 208 C1410.67 208 1410.34 208 1410 208 Z M441 291 C432.17012441 301.54763296 428.08968047 311.70853847 424 325 C469.54 325 515.08 325 562 325 C558.36308836 306.81544179 549.7070911 290.55640443 534.25 279.6875 C504.24853995 260.74525163 465.31837032 265.40959185 441 291 Z M835.33984375 308.04296875 C822.02015558 324.49040735 815.14316467 342.24154553 812 363 C811.81566406 364.08410156 811.63132812 365.16820312 811.44140625 366.28515625 C807.93400816 395.80317026 814.4289823 423.62483159 832.72265625 447.21484375 C843.78907535 460.74890348 858.63301727 470.03110464 876 473 C897.11959474 474.5710433 917.05387852 472.43425167 933.67382812 458.16333008 C946.75274444 446.43565868 954.80658715 430.94837694 959 414 C959.2990625 412.84371094 959.598125 411.68742187 959.90625 410.49609375 C966.7486569 379.1033843 962.27814276 343.76244715 946 316 C943.56372676 312.4211335 940.9243981 309.18816734 938 306 C937.36320313 305.28328125 936.72640625 304.5665625 936.0703125 303.828125 C928.81503228 296.07750436 919.98411321 291.37808342 910 288 C909.13246094 287.69964844 908.26492188 287.39929688 907.37109375 287.08984375 C881.94666239 279.48726692 852.52843258 287.78205401 835.33984375 308.04296875 Z M420 409 C420 429.73627916 428.6784719 446.99153334 442.625 462.125 C457.44201919 476.19252017 475.51039529 482.17608422 495.625 482.1875 C496.73746094 482.19974609 497.84992188 482.21199219 498.99609375 482.22460938 C517.02391476 482.25608985 532.42512859 478.49276837 545.515625 465.50390625 C549.64583061 461.2064268 549.64583061 461.2064268 552.85966015 456.24700069 C554.03646099 454.05300092 555.09299035 452.61628525 557 451 C561.11847036 449.93263148 565.17467598 450.05715971 569.40942383 450.11352539 C570.66836456 450.10274963 571.9273053 450.09197388 573.22439575 450.08087158 C576.66865852 450.05217748 580.11156028 450.06636111 583.55582261 450.08831334 C587.15806348 450.10395822 590.76003843 450.08007677 594.36222839 450.06040955 C601.17979292 450.02918167 607.99685386 450.03343978 614.81444997 450.05048412 C622.57752004 450.06816166 630.34032056 450.04622353 638.10335124 450.02097714 C654.06901009 449.96994125 670.0342776 449.96859153 686 450 C685.83395264 449.39752441 685.66790527 448.79504883 685.49682617 448.17431641 C684.71784705 445.32697616 683.9527288 442.47606521 683.1875 439.625 C682.79594727 438.20574219 682.79594727 438.20574219 682.39648438 436.7578125 C679.92773671 427.49238915 678.60138682 418.60832094 677 409 C592.19 409 507.38 409 420 409 Z " fill="#462E90" transform="translate(0,0)"/>
<path d="M0 0 C102.96 0 205.92 0 312 0 C312 41.58 312 83.16 312 126 C309.02403436 127.48798282 306.36098988 127.10342921 303.03988647 127.08229065 C302.31538886 127.07906152 301.59089124 127.07583239 300.84443915 127.07250541 C298.40454104 127.06039309 295.96475343 127.04102807 293.52490234 127.02172852 C291.78078962 127.01158967 290.03667426 127.00189557 288.29255676 126.99261475 C283.54692262 126.96609429 278.80134947 126.93332288 274.05576277 126.89946485 C269.10031736 126.86516081 264.14483922 126.83655608 259.18936157 126.80735779 C249.80062667 126.75116654 240.41193277 126.68981814 231.02324259 126.62663645 C220.33660378 126.55496978 209.64993211 126.48902257 198.96325374 126.42356598 C176.97545833 126.28876066 154.98772422 126.14598456 133 126 C133 151.41 133 176.82 133 203 C148.5761853 202.95286865 148.5761853 202.95286865 164.46704102 202.90478516 C197.6824073 202.80851003 230.89777412 202.74175589 264.11324367 202.69360802 C269.27154106 202.68610367 274.42983802 202.67833775 279.58813477 202.67041016 C280.61507007 202.66883629 281.64200538 202.66726243 282.70005994 202.66564088 C299.33376956 202.63952438 315.96735491 202.59221217 332.60099078 202.53708322 C349.66533409 202.48099796 366.72961226 202.44765235 383.79404396 202.43546903 C394.32598788 202.42723133 404.85758057 202.40120235 415.38941639 202.3525012 C422.60894957 202.32081489 429.82830085 202.31119273 437.04789854 202.31899174 C441.21498005 202.32283944 445.38144733 202.31689185 449.54841995 202.28476715 C453.36406808 202.25556559 457.17868908 202.2540947 460.99438452 202.27460663 C463.02727857 202.27834177 465.06016055 202.2524646 467.09287935 202.22551215 C476.97908037 202.3229391 476.97908037 202.3229391 481.25457668 205.92546654 C482.20217335 206.92037861 483.12351148 207.94190863 484 209 C484.60328125 209.63164062 485.2065625 210.26328125 485.828125 210.9140625 C486.29734375 211.47867188 486.7665625 212.04328125 487.25 212.625 C490.21793379 216.11198947 493.2723112 219.50801401 496.375 222.875 C497.31911326 223.90355144 498.26312377 224.93219721 499.20703125 225.9609375 C501.01320085 227.92800332 502.82368024 229.89079493 504.63671875 231.8515625 C505.43722656 232.72554687 506.23773437 233.59953125 507.0625 234.5 C507.77535156 235.2734375 508.48820312 236.046875 509.22265625 236.84375 C510.86446836 238.8355748 511.96755844 240.64624722 513 243 C513.66 243 514.32 243 515 243 C516.41015625 244.3984375 516.41015625 244.3984375 518.0625 246.375 C520.7907947 249.58342938 523.55144446 252.74980367 526.375 255.875 C529.37951464 259.20432704 532.37970059 262.53738066 535.375 265.875 C538.81949831 269.70020601 542.27793204 273.51232572 545.75 277.3125 C546.63171875 278.27800781 547.5134375 279.24351562 548.421875 280.23828125 C550.89548949 282.88804708 553.42116321 285.45363058 556 288 C560.76539221 282.72673152 565.51235412 277.44137714 570.171875 272.07421875 C573.05721917 268.80046286 576.02284949 265.59939889 578.984375 262.39453125 C581.04620624 260.08305532 581.04620624 260.08305532 582.453125 257.51171875 C584.2908167 254.52779005 586.47757985 252.43049522 589 250 C590.98321579 247.9187884 592.92887645 245.80337985 594.875 243.6875 C595.40673828 243.10991943 595.93847656 242.53233887 596.48632812 241.93725586 C600.39338905 237.68254284 604.23558119 233.38166158 608 229 C609.01813656 227.82413856 610.03637569 226.64836592 611.0546875 225.47265625 C612.16171595 224.19032652 613.26848489 222.90777272 614.375 221.625 C615.1803418 220.69506226 615.1803418 220.69506226 616.00195312 219.74633789 C618.79140687 216.57504239 618.79140687 216.57504239 621 213 C621.66 213 622.32 213 623 213 C623.20625 212.46375 623.4125 211.9275 623.625 211.375 C625.69604701 207.79773698 627.40299136 205.08404142 631 203 C636.17315508 202.10238667 641.32272211 202.24143254 646.55224609 202.31884766 C648.14916927 202.32054108 649.74609711 202.31958818 651.34301758 202.31619263 C655.66938166 202.31447319 659.99474485 202.34971387 664.3208766 202.39163637 C668.84518305 202.42917953 673.36951322 202.43267155 677.89395142 202.43978882 C686.45755347 202.45842718 695.02069518 202.50765039 703.58409464 202.56788576 C713.33489002 202.63498243 723.08570755 202.66794782 732.83667636 202.69805837 C752.89137437 202.76075043 772.94565817 202.86626573 793 203 C792.13866302 207.5296335 789.49012637 210.02637501 786.375 213.25 C785.27138676 214.41726137 784.16851809 215.58522718 783.06640625 216.75390625 C782.53418457 217.31480957 782.00196289 217.87571289 781.45361328 218.45361328 C779.69352982 220.32602992 777.9936449 222.24404881 776.3125 224.1875 C771.4531372 229.79806865 766.4813678 235.30963491 761.44921875 240.765625 C756.80812248 245.80815145 752.41254532 250.87604957 748.375 256.41796875 C747.92125 256.94003906 747.4675 257.46210938 747 258 C746.34 258 745.68 258 745 258 C744.7525 258.556875 744.505 259.11375 744.25 259.6875 C742.77075182 262.42410913 741.06532561 264.67650869 739 267 C738.34 267 737.68 267 737 267 C736.72760498 267.59530518 736.45520996 268.19061035 736.17456055 268.80395508 C735.02967324 270.94452072 733.8825856 272.39719721 732.20703125 274.13671875 C731.38972534 274.99692627 731.38972534 274.99692627 730.5559082 275.87451172 C729.9805835 276.47279785 729.40525879 277.07108398 728.8125 277.6875 C724.31076538 282.43041005 720.09128349 287.20201033 716.26953125 292.5234375 C715.85058594 293.01070313 715.43164062 293.49796875 715 294 C714.34 294 713.68 294 713 294 C712.7525 294.556875 712.505 295.11375 712.25 295.6875 C710.77075182 298.42410913 709.06532561 300.67650869 707 303 C706.34 303 705.68 303 705 303 C704.72760498 303.59530518 704.45520996 304.19061035 704.17456055 304.80395508 C703.02967324 306.94452072 701.8825856 308.39719721 700.20703125 310.13671875 C699.38972534 310.99692627 699.38972534 310.99692627 698.5559082 311.87451172 C697.9805835 312.47279785 697.40525879 313.07108398 696.8125 313.6875 C692.31076538 318.43041005 688.09128349 323.20201033 684.26953125 328.5234375 C683.85058594 329.01070313 683.43164062 329.49796875 683 330 C682.34 330 681.68 330 681 330 C680.72760498 330.59458008 680.45520996 331.18916016 680.17456055 331.80175781 C679.02970512 333.94440556 677.87355302 335.42006637 676.20703125 337.171875 C675.39045044 338.0386084 675.39045044 338.0386084 674.55737305 338.92285156 C673.98156494 339.52581055 673.40575684 340.12876953 672.8125 340.75 C671.62685772 342.00971453 670.44195521 343.27012576 669.2578125 344.53125 C668.69094727 345.13324219 668.12408203 345.73523438 667.54003906 346.35546875 C662.24596268 352.00875006 657.41011718 357.94829507 652.69921875 364.09375 C652.13847656 364.7228125 651.57773438 365.351875 651 366 C650.34 366 649.68 366 649 366 C648.77570312 366.54140625 648.55140625 367.0828125 648.3203125 367.640625 C646.58851134 370.73532294 644.28380732 373.17925605 641.875 375.75 C641.40707031 376.25660156 640.93914063 376.76320313 640.45703125 377.28515625 C639.30873459 378.52719141 638.15491328 379.76411494 637 381 C641.17493454 385.92428176 645.45300857 390.74132949 649.78125 395.53125 C652.24941399 398.27751697 654.67490725 401.05800034 657.09375 403.84765625 C658.59351151 405.54103451 660.12007927 407.21067392 661.65625 408.87109375 C662.34569702 409.61661499 662.34569702 409.61661499 663.04907227 410.37719727 C664.38178071 411.81489135 665.72006939 413.24740659 667.05859375 414.6796875 C669 417 669 417 669 419 C669.66 419 670.32 419 671 419 C672.7265625 420.6796875 672.7265625 420.6796875 674.625 422.875 C675.25664063 423.59429687 675.88828125 424.31359375 676.5390625 425.0546875 C678 427 678 427 678 429 C678.66 429 679.32 429 680 429 C681.30863371 430.47068414 682.5446856 432.00601318 683.75 433.5625 C687.67611446 438.47967248 691.8075938 443.11111803 696.125 447.6875 C700.26282814 452.0768496 704.36056091 456.47438893 708.296875 461.046875 C710.49365905 463.56612276 712.74689619 466.03102996 715 468.5 C718.45328153 472.28662998 721.86099051 476.1047632 725.22265625 479.97265625 C728.05432947 483.20263076 730.94202507 486.38190656 733.8203125 489.5703125 C735.69145094 491.6560618 737.53924831 493.75817628 739.375 495.875 C741.85037558 498.72282793 744.3855591 501.50744833 746.95043945 504.27490234 C751.01370017 508.66057775 754.94116395 513.08487342 758.6875 517.75 C761.94918794 521.80240017 765.37890862 525.48962416 769.10546875 529.11328125 C771.58986131 531.58742889 773.86592786 534.21098681 776.15234375 536.8671875 C778.2371655 539.27376821 780.36521533 541.63764945 782.5 544 C783.2528125 544.83660156 784.005625 545.67320312 784.78125 546.53515625 C786.21587071 548.12889862 787.65319134 549.72021657 789.09375 551.30859375 C789.7228125 552.01113281 790.351875 552.71367188 791 553.4375 C791.8353125 554.36369141 791.8353125 554.36369141 792.6875 555.30859375 C794 557 794 557 795 560 C772.93850444 560.16351058 750.87710877 560.28695569 728.81513023 560.3626852 C718.57137168 560.3987822 708.32798958 560.44799626 698.08447266 560.52807617 C689.15635701 560.59783952 680.22851398 560.64300589 671.30013335 560.65861946 C666.57230802 560.66774677 661.84526261 560.68920067 657.11768723 560.7401104 C652.66713171 560.78764839 648.21767677 560.80227631 643.76689148 560.79175377 C642.13421775 560.79367851 640.50150698 560.80759013 638.86905289 560.83443832 C626.51230912 561.02768379 626.51230912 561.02768379 622.74776077 558.46949959 C621.22902132 556.71328031 620.12817915 555.01995857 619 553 C618.236875 552.236875 617.47375 551.47375 616.6875 550.6875 C614.11770394 548.11770394 611.64343179 545.49100061 609.1875 542.8125 C608.39730469 541.95269531 607.60710938 541.09289062 606.79296875 540.20703125 C605 538 605 538 605 536 C604.34 536 603.68 536 603 536 C601.4921875 534.5390625 601.4921875 534.5390625 599.875 532.625 C599.06675781 531.68527344 599.06675781 531.68527344 598.2421875 530.7265625 C597 529 597 529 597 527 C596.34 527 595.68 527 595 527 C593.56450274 525.40665761 592.20172673 523.74748918 590.875 522.0625 C586.14186931 516.14799208 581.32334725 510.31699286 575.95703125 504.9609375 C574.21597095 503.21640203 572.600984 501.4344839 571 499.5625 C567.21599147 495.19696635 563.29512431 490.96538626 559.3515625 486.74438477 C556.90214693 484.11086016 554.52863576 481.45393107 552.2578125 478.6640625 C550.27962282 475.97598029 550.27962282 475.97598029 548 475 C548 475.66 548 476.32 548 477 C547.34 477 546.68 477 546 477 C545.78472656 477.53496094 545.56945313 478.06992187 545.34765625 478.62109375 C543.50749742 481.86937411 541.00157733 484.38419927 538.4375 487.0625 C534.65597402 491.07836454 531.00641818 495.12300027 527.5625 499.4375 C522.98085598 505.14577779 518.01197564 510.44296038 513.0078125 515.77734375 C510.15453222 518.82137013 507.38811991 521.92966877 504.6640625 525.08984375 C502.68459874 527.36204511 500.6541683 529.58459872 498.625 531.8125 C495.51471149 535.25378205 492.53521688 538.76321298 489.625 542.375 C488.91125554 543.22997786 488.19751108 544.08495573 487.462138 544.96584201 C484.97262302 547.95873169 484.97262302 547.95873169 482.82122678 551.12358403 C479.17074414 555.89043805 476.00150126 559.91516876 469.88087142 561.09904623 C464.81951469 561.66574222 459.76578649 561.54404112 454.68232727 561.4430542 C452.7223866 561.44830926 450.76245422 561.45884333 448.80256653 561.47418213 C443.42422446 561.50103054 438.04876263 561.45304315 432.67078628 561.39287275 C426.77986507 561.34039268 420.88907215 561.35801318 414.99798107 561.36668777 C403.5673338 561.37306263 392.13781959 561.31770728 380.70746331 561.24067183 C367.48337165 561.15421821 354.25995902 561.14473223 341.03552246 561.13525391 C306.12766892 561.07226818 271.22006742 560.90473445 236.3125 560.75 C119.3378125 560.37875 119.3378125 560.37875 0 560 C0 375.2 0 190.4 0 0 Z M312 208 C312 246.61 312 285.22 312 325 C252.93 325 193.86 325 133 325 C133 360.64 133 396.28 133 433 C191.74 433.33 250.48 433.66 311 434 C311.33 474.26 311.66 514.52 312 556 C313.65 554.35 315.3 552.7 317 551 C317.62003906 550.3915625 318.24007812 549.783125 318.87890625 549.15625 C322.15245611 545.93586685 325.32205896 542.74911746 328 539 C328 538.34 328 537.68 328 537 C328.66 537 329.32 537 330 537 C331.43467016 535.62042584 331.43467016 535.62042584 332.9375 533.75 C335.99656767 530.14398884 339.15581131 526.6501193 342.375 523.1875 C345.80972608 519.47578925 349.09613869 515.70720334 352.25 511.75 C356.65463945 506.27374881 361.43802266 501.21673484 366.27148438 496.12304688 C370.90570723 491.21977004 375.34811674 486.19295387 379.69555664 481.03491211 C383.55727643 476.46614473 387.57142689 472.05844332 391.70019531 467.72949219 C394.26572884 465.28335332 394.26572884 465.28335332 395 462 C395.66 462 396.32 462 397 462 C398.50273886 460.55316948 398.50273886 460.55316948 400.0625 458.625 C402.77923786 455.42453655 405.54335219 452.28693937 408.375 449.1875 C412.37153376 444.76812478 416.1443497 440.20050973 419.859375 435.54296875 C422 433 422 433 424.765625 430.30078125 C427.23222608 428.29540267 427.23222608 428.29540267 427 426 C427.66 426 428.32 426 429 426 C432.02517909 422.94441577 432.02517909 422.94441577 433 419 C433.54527344 418.80148437 434.09054687 418.60296875 434.65234375 418.3984375 C437.97796244 416.41745332 440.13725369 413.57942678 442.5625 410.625 C443.62845419 409.35269496 444.69619962 408.08188875 445.765625 406.8125 C446.30380859 406.173125 446.84199219 405.53375 447.39648438 404.875 C449.80165995 402.06261443 452.29737278 399.33894455 454.8125 396.625 C458.95329188 392.14814385 463.01909729 387.61947755 467 383 C466.20882096 381.00016466 466.20882096 381.00016466 465 379 C464.01 378.67 463.02 378.34 462 378 C461.566875 376.8553125 461.566875 376.8553125 461.125 375.6875 C459.71387097 372.31646954 457.85045476 371.25384795 455 369 C454.07135063 367.77418284 453.17613626 366.52245816 452.3125 365.25 C451.549375 364.1775 450.78625 363.105 450 362 C449.34 362 448.68 362 448 362 C447.77441406 361.45472656 447.54882812 360.90945313 447.31640625 360.34765625 C445.60859886 357.30198194 443.32959113 354.94662661 440.9375 352.4375 C436.42085164 347.61740564 432.17817516 342.65043751 428.0703125 337.47265625 C425.9727957 334.89304286 425.9727957 334.89304286 423.3046875 332.30859375 C421 330 421 330 420 328 C419.34 328 418.68 328 418 328 C417.72687988 327.40396973 417.45375977 326.80793945 417.17236328 326.19384766 C416.03614671 324.06764147 414.9052745 322.62585197 413.2421875 320.8984375 C412.70247314 320.33012207 412.16275879 319.76180664 411.60668945 319.17626953 C410.74950317 318.28464111 410.74950317 318.28464111 409.875 317.375 C405.09882256 312.34181149 400.65708281 307.2477634 396.48828125 301.6953125 C395.99714844 301.13585937 395.50601562 300.57640625 395 300 C394.34 300 393.68 300 393 300 C393 299.34 393 298.68 393 298 C392.34 298 391.68 298 391 298 C391 297.34 391 296.68 391 296 C390.34 296 389.68 296 389 296 C388.67 294.68 388.34 293.36 388 292 C387.34 292 386.68 292 386 292 C385.34 290.68 384.68 289.36 384 288 C383.34 288 382.68 288 382 288 C381.63068359 287.15115234 381.63068359 287.15115234 381.25390625 286.28515625 C379.78463776 283.60751742 378.02247565 281.66956388 375.9375 279.4375 C371.68380776 274.82647012 367.78062936 270.01723011 363.9453125 265.0546875 C363.30335938 264.37664062 362.66140625 263.69859375 362 263 C361.01 263 360.02 263 359 263 C358.90525391 262.18789063 358.90525391 262.18789063 358.80859375 261.359375 C357.66112936 258.01121803 355.43664264 255.78730251 353.0625 253.25 C352.60681641 252.74339844 352.15113281 252.23679688 351.68164062 251.71484375 C350.50093297 250.43214232 349.25448188 249.21064807 348 248 C347.34 248 346.68 248 346 248 C345.7628125 247.28457031 345.525625 246.56914062 345.28125 245.83203125 C343.79179731 242.53979589 341.93205153 240.35249153 339.5 237.6875 C338.30890625 236.36298828 338.30890625 236.36298828 337.09375 235.01171875 C335.24356686 232.7690534 335.24356686 232.7690534 333 233 C332.01 230.525 332.01 230.525 331 228 C330.34 228 329.68 228 329 228 C329 227.34 329 226.68 329 226 C328.34 226 327.68 226 327 226 C326.5978125 225.13375 326.5978125 225.13375 326.1875 224.25 C324.97070811 221.94449957 323.69666121 219.97943808 322 218 C321.34 218 320.68 218 320 218 C319.6596875 217.195625 319.6596875 217.195625 319.3125 216.375 C317.55615049 213.19684374 315.41020825 210.71920931 313 208 C312.67 208 312.34 208 312 208 Z " fill="#F37820" transform="translate(1098,0)"/>
<path d="M0 0 C18.88837923 -0.02311778 37.77675448 -0.0409786 56.66514492 -0.05181217 C65.43472715 -0.05697538 74.20430045 -0.06401854 82.97387695 -0.07543945 C90.61462903 -0.08538554 98.25537464 -0.09185325 105.89613301 -0.09408849 C109.94438385 -0.09539573 113.99261619 -0.09848238 118.04086113 -0.10573006 C121.84680869 -0.11248909 125.65273002 -0.1146172 129.45868301 -0.11310768 C130.85957672 -0.11338406 132.26047125 -0.11538988 133.66135979 -0.11920547 C135.56589508 -0.12414083 137.47044426 -0.122398 139.37498474 -0.12025452 C140.44334281 -0.12117631 141.51170088 -0.1220981 142.61243343 -0.12304783 C145 0 145 0 146 1 C146.09967586 3.26449379 146.12799831 5.53214211 146.12939453 7.79882812 C146.13202301 8.8646537 146.13202301 8.8646537 146.13470459 9.95201111 C146.13912277 12.31178191 146.13618525 14.67147837 146.1328125 17.03125 C146.13348555 18.66410334 146.13445558 20.29695658 146.13571167 21.92980957 C146.1371886 25.35637361 146.13503426 28.78291163 146.13037109 32.20947266 C146.1246738 36.61154501 146.12795284 41.01355641 146.13394356 45.41562653 C146.13754931 48.78868065 146.13641052 52.16172022 146.13381577 55.53477478 C146.13314654 57.15836087 146.13397478 58.78194827 146.13629532 60.40553284 C146.13882209 62.6707817 146.13498094 64.9359305 146.12939453 67.20117188 C146.12859894 68.49277222 146.12780334 69.78437256 146.12698364 71.1151123 C146 74 146 74 145 75 C142.98035801 75.07244053 140.95832876 75.08377188 138.9375 75.0625 C137.83277344 75.05347656 136.72804688 75.04445313 135.58984375 75.03515625 C134.73519531 75.02355469 133.88054687 75.01195312 133 75 C132.80664062 74.07058594 132.61328125 73.14117188 132.4140625 72.18359375 C132.15367187 70.94738281 131.89328125 69.71117187 131.625 68.4375 C131.36976563 67.21933594 131.11453125 66.00117187 130.8515625 64.74609375 C128.17545987 52.97369733 124.92681194 41.0952717 118.234375 30.953125 C117 29 117 29 116 26 C115.34 26 114.68 26 114 26 C113.41863281 25.24074219 112.83726563 24.48148438 112.23828125 23.69921875 C109.74707805 20.6949929 107.68626112 19.48777329 104.1875 17.8125 C103.19105469 17.32394531 102.19460938 16.83539062 101.16796875 16.33203125 C94.15677285 13.38404382 88.07331052 12.66080913 80.5625 12.6875 C79.65951172 12.67138672 78.75652344 12.65527344 77.82617188 12.63867188 C70.6007168 12.63343983 64.9103213 13.65908939 59.125 18.3125 C55.34736054 23.09010284 54.74980358 27.76708891 54.68115234 33.73974609 C54.66608391 34.70666382 54.66608391 34.70666382 54.65071106 35.69311523 C54.62005956 37.80321438 54.60289495 39.91318774 54.5859375 42.0234375 C54.56721126 43.49460926 54.54763678 44.96577045 54.5272522 46.43692017 C54.47607851 50.29357651 54.43637422 54.15026761 54.39910889 58.00708008 C54.35897624 61.94881689 54.30792631 65.89041093 54.2578125 69.83203125 C54.16122822 77.5545893 54.07676799 85.27721683 54 93 C57.16794899 92.94750256 60.33329878 92.85229512 63.5 92.75 C64.386875 92.73582031 65.27375 92.72164062 66.1875 92.70703125 C73.74501995 92.42918125 79.12107443 90.61720507 84.75 85.5 C90.0378023 78.41398884 91.42116702 68.83439463 92.60546875 60.30078125 C93 58 93 58 94 57 C95.83115883 56.90148829 97.66619933 56.87027371 99.5 56.875 C100.5003125 56.87242187 101.500625 56.86984375 102.53125 56.8671875 C105 57 105 57 106 58 C106.10041457 60.61150288 106.13617057 63.19658365 106.12939453 65.80859375 C106.13202301 67.03535324 106.13202301 67.03535324 106.13470459 68.28689575 C106.13912385 71.0037851 106.13618486 73.72060993 106.1328125 76.4375 C106.13348552 78.31697604 106.13445553 80.19645199 106.13571167 82.07592773 C106.13718874 86.02035346 106.13503379 89.96475658 106.13037109 93.90917969 C106.1246738 98.97712503 106.12795276 104.04501742 106.13394356 109.11296082 C106.13754892 112.99556887 106.1364107 116.87816428 106.13381577 120.76077271 C106.13314643 122.62997443 106.13397516 124.49917728 106.13629532 126.36837769 C106.13882143 128.97608504 106.13498184 131.58370541 106.12939453 134.19140625 C106.13141876 134.97170197 106.13344299 135.75199768 106.13552856 136.55593872 C106.11426253 141.88573747 106.11426253 141.88573747 105 143 C102.98035801 143.07244053 100.95832876 143.08377188 98.9375 143.0625 C97.83277344 143.05347656 96.72804688 143.04445313 95.58984375 143.03515625 C94.30787109 143.01775391 94.30787109 143.01775391 93 143 C92.82984375 142.10539063 92.6596875 141.21078125 92.484375 140.2890625 C89.14196258 123.36037318 89.14196258 123.36037318 77.984375 110.9140625 C73.3931271 108.36383681 68.72251318 108.10663158 63.5625 107.75 C62.64017578 107.67265625 61.71785156 107.5953125 60.76757812 107.515625 C58.51247596 107.32867352 56.25733786 107.1571989 54 107 C54.06134246 116.90156879 54.13854295 126.80287685 54.23571491 136.7041626 C54.28034864 141.30226878 54.31962003 145.9002878 54.34643555 150.49853516 C54.37253855 154.9401946 54.41298999 159.38151733 54.46318626 163.82296753 C54.4798078 165.51329342 54.49135133 167.20367748 54.49761391 168.89407349 C54.50730668 171.27088308 54.53542585 173.64684034 54.56762695 176.0234375 C54.56619186 176.71468216 54.56475677 177.40592682 54.5632782 178.11811829 C54.67819013 184.15680949 56.10949209 189.52278274 59.8125 194.375 C67.86916636 200.35995216 80.83351266 198.89999873 90.29785156 197.71142578 C101.98606174 195.73149932 113.81656491 191.0772173 121.34765625 181.5390625 C129.72928643 168.65948893 135.00491739 154.62155787 135.82421875 139.171875 C136 137 136 137 137 134 C139.36613456 132.81693272 140.86780736 132.86645392 143.5 132.875 C144.69109375 132.87113281 144.69109375 132.87113281 145.90625 132.8671875 C148 133 148 133 150 134 C150 159.41 150 184.82 150 211 C100.5 211 51 211 0 211 C0 207.04 0 203.08 0 199 C1.10859375 198.84144531 2.2171875 198.68289063 3.359375 198.51953125 C4.82309445 198.28496083 6.286627 198.0492221 7.75 197.8125 C8.84441406 197.66071289 8.84441406 197.66071289 9.9609375 197.50585938 C13.79328813 196.86132768 15.5810638 196.40359299 18.453125 193.63671875 C21.05725906 189.19785387 21.12764768 185.49297007 21.14044189 180.37797546 C21.14341302 179.71387769 21.14638414 179.04977992 21.1494453 178.36555797 C21.15811235 176.14172311 21.15963885 173.9179422 21.16113281 171.6940918 C21.16576238 170.09896734 21.17078723 168.50384399 21.17617798 166.90872192 C21.18929018 162.57598275 21.19574458 158.24325906 21.20018864 153.91050315 C21.20312112 151.20279784 21.20722626 148.49509675 21.21169281 145.78739357 C21.22536432 137.31329515 21.23503281 128.83920639 21.2388947 120.3650977 C21.24337545 110.5871693 21.26092558 100.80938069 21.2898953 91.0314948 C21.31151856 83.47043023 21.32159932 75.90940497 21.32293582 68.34830981 C21.32398334 63.83374678 21.3298799 59.31931522 21.34775543 54.80478477 C21.36424739 50.55712519 21.3663862 46.30969575 21.35761642 42.06201553 C21.35684666 40.50560324 21.36118074 38.94917851 21.37107468 37.39279747 C21.38381918 35.26258448 21.37790467 33.13318362 21.36749268 31.00297546 C21.36969252 29.21742013 21.36969252 29.21742013 21.3719368 27.39579296 C20.84067925 22.54539724 19.63332999 18.36444555 15.76953125 15.13671875 C12.39941612 13.75349801 9.30152607 13.25158728 5.6875 12.8125 C3.80611328 12.57466797 3.80611328 12.57466797 1.88671875 12.33203125 C0.45779297 12.16767578 0.45779297 12.16767578 -1 12 C-0.67 8.04 -0.34 4.08 0 0 Z " fill="#452D8C" transform="translate(1075,616)"/>
<path d="M0 0 C17.77359626 16.00317945 24.45395596 41.37992663 26.28515625 64.3828125 C26.93296874 88.57720085 20.08024806 112.70825793 3.37890625 130.51171875 C-6.3667643 139.88932621 -18.50967961 145.26091242 -32.1171875 145.078125 C-41.07858063 144.21598555 -49.53370017 141.17706298 -56 134.80078125 C-57.3419507 133.14104517 -58.6761531 131.47499299 -60 129.80078125 C-60.12689295 136.26012165 -60.21438968 142.71914009 -60.2746582 149.17944336 C-60.29978509 151.37650565 -60.33389246 153.57348449 -60.37719727 155.77026367 C-60.43792762 158.9303853 -60.46622833 162.08940082 -60.48828125 165.25 C-60.51408768 166.23038742 -60.5398941 167.21077484 -60.56648254 168.22087097 C-60.56839379 172.87975074 -60.55142923 175.06950161 -57.67651367 178.88208008 C-53.31536509 182.00843844 -48.84531823 182.73759016 -43.625 183.36328125 C-40 183.80078125 -40 183.80078125 -39 184.80078125 C-39 188.43078125 -39 192.06078125 -39 195.80078125 C-62.43 195.80078125 -85.86 195.80078125 -110 195.80078125 C-110 184.80078125 -110 184.80078125 -109 183.80078125 C-107.25532717 183.47877788 -105.50388661 183.19308482 -103.75 182.92578125 C-97.88527229 181.96658311 -97.88527229 181.96658311 -93 178.80078125 C-91.39492487 174.15490404 -90.74933866 170.07254788 -90.74603271 165.17312622 C-90.74039307 163.88073029 -90.73475342 162.58833435 -90.72894287 161.2567749 C-90.73283074 159.84191838 -90.73692703 158.42706241 -90.74121094 157.01220703 C-90.73849813 155.50855337 -90.73493558 154.00490105 -90.73059082 152.50125122 C-90.72149739 148.43090998 -90.72499889 144.36067049 -90.73134899 140.29032755 C-90.73642664 136.02109416 -90.73171246 131.75186925 -90.72857666 127.4826355 C-90.72494137 120.3121383 -90.72972382 113.14168234 -90.73925781 105.97119141 C-90.75013322 97.69659239 -90.74662167 89.422092 -90.735605 81.14749539 C-90.72650975 74.02964186 -90.72525803 66.91181792 -90.73048234 59.79396045 C-90.73359082 55.54881289 -90.73404252 51.30371158 -90.72740936 47.05856705 C-90.72160422 43.06450443 -90.72569042 39.07056808 -90.73719788 35.07651901 C-90.73982794 33.61609354 -90.73910785 32.15565732 -90.73467255 30.69523621 C-90.71388102 23.14965529 -90.69991437 16.0359654 -93 8.80078125 C-96.28463659 6.61102352 -99.20696275 5.80271562 -103 4.80078125 C-103 1.17078125 -103 -2.45921875 -103 -6.19921875 C-89.8 -6.19921875 -76.6 -6.19921875 -63 -6.19921875 C-62.505 1.72078125 -62.505 1.72078125 -62 9.80078125 C-61.030625 8.46015625 -60.06125 7.11953125 -59.0625 5.73828125 C-53.00645443 -2.03058529 -45.82160465 -7.53171539 -36.1875 -9.88671875 C-22.35586134 -11.24276176 -11.01559657 -8.67047933 0 0 Z M-47.0625 10.80078125 C-58.08840453 23.90585635 -61.08557919 43.16566488 -61.23828125 59.85546875 C-61.246353 60.71528351 -61.25442474 61.57509827 -61.26274109 62.46096802 C-61.27651563 64.27799507 -61.28726715 66.09504728 -61.29516602 67.91210938 C-61.30661021 69.73673301 -61.32693995 71.5613252 -61.35668945 73.38574219 C-61.64104932 90.87943441 -60.21715078 109.46775526 -49 123.80078125 C-44.88211612 127.98935841 -40.96526348 131.82686068 -35 132.80078125 C-29.71767882 132.77258381 -25.23286068 132.21437857 -21 128.80078125 C-21 128.14078125 -21 127.48078125 -21 126.80078125 C-20.34 126.80078125 -19.68 126.80078125 -19 126.80078125 C-8.84266196 113.93481974 -6.88138269 95.57284262 -6.796875 79.68359375 C-6.78832489 78.39955154 -6.78832489 78.39955154 -6.77960205 77.08956909 C-6.77020403 75.28270684 -6.7636389 73.47582785 -6.75976562 71.66894531 C-6.7501495 68.96777473 -6.71911363 66.267396 -6.6875 63.56640625 C-6.57965374 45.809891 -7.02981769 22.33778387 -20 8.80078125 C-25.01443467 4.3561687 -27.88872503 3.47886639 -34.4765625 3.6015625 C-40.17026914 4.05106566 -43.24772637 6.82972267 -47.0625 10.80078125 Z " fill="#462E8E" transform="translate(1478,686.19921875)"/>
<path d="M0 0 C20.46 0 40.92 0 62 0 C62 3.96 62 7.92 62 12 C57.75195312 12.34179688 57.75195312 12.34179688 53.50390625 12.68359375 C51.06359221 12.73211468 51.06359221 12.73211468 50 14 C49.11645863 20.01912556 51.72947986 23.39503696 55 28.125 C55.74733398 29.24007935 55.74733398 29.24007935 56.50976562 30.37768555 C57.5190636 31.88142941 58.53399556 33.381408 59.5546875 34.87744141 C60.85495612 36.7869913 62.13603841 38.70709885 63.40625 40.63671875 C66.17563351 44.83729486 68.94318654 49.00191166 72 53 C73.32439514 51.03855403 74.63826782 49.07073087 75.9453125 47.09765625 C77.0635554 45.41178815 78.18397164 43.72732043 79.31542969 42.05029297 C80.78277326 39.87338182 82.23564125 37.68726251 83.6875 35.5 C84.16292236 34.80076416 84.63834473 34.10152832 85.12817383 33.38110352 C88.45484636 28.33209867 92.56759555 22.08415119 91.6940918 15.79882812 C91.15326344 13.7960192 91.15326344 13.7960192 89 13 C86.40856095 12.68954474 83.81628268 12.49026088 81.21484375 12.28125 C79 12 79 12 78 11 C78 7.37 78 3.74 78 0 C95.16 0 112.32 0 130 0 C130 3.96 130 7.92 130 12 C128.865625 12.20625 127.73125 12.4125 126.5625 12.625 C117.45745701 14.94677596 111.66614203 20.86904934 106.5625 28.4375 C106.01174805 29.22664795 105.46099609 30.0157959 104.89355469 30.82885742 C103.24267962 33.20647121 101.61710396 35.59931962 100 38 C99.53384277 38.68932617 99.06768555 39.37865234 98.58740234 40.08886719 C96.49569978 43.1905963 94.42362329 46.30448258 92.3671875 49.4296875 C88.67898851 55.02206942 84.83460545 60.50743712 81 66 C85.74496817 74.10715027 90.8352747 81.97012144 96 89.8125 C96.84132674 91.09178494 97.68263512 92.37108196 98.52392578 93.65039062 C100.21143286 96.21531889 101.90063122 98.7791236 103.59082031 101.34228516 C105.79464035 104.68551678 107.98757548 108.03579739 110.1796875 111.38671875 C111.41099234 113.25811918 112.64273235 115.12923341 113.875 117 C114.42671875 117.84667236 114.9784375 118.69334473 115.546875 119.56567383 C120.98639959 127.98386592 120.98639959 127.98386592 129.5 132.75 C130.2321875 132.97171875 130.964375 133.1934375 131.71875 133.421875 C134.12608428 134.03195287 136.56479085 134.51295817 139 135 C139 138.96 139 142.92 139 147 C117.22 147 95.44 147 73 147 C73 136 73 136 74 135 C76.8331994 134.42618746 79.67919762 133.97044163 82.53125 133.5 C84.93415977 133.25006493 84.93415977 133.25006493 86 132 C86.15660503 123.69993333 81.67460384 118.53474031 77 112 C75.59594242 109.9222005 74.19987515 107.83897551 72.8125 105.75 C72.15636719 104.7703125 71.50023437 103.790625 70.82421875 102.78125 C69.19784927 100.301646 67.65106098 97.79194321 66.125 95.25 C65.42375 94.1775 64.7225 93.105 64 92 C63.34 92 62.68 92 62 92 C60.67357935 93.74313818 60.67357935 93.74313818 59.390625 96.0234375 C58.88273437 96.88066406 58.37484375 97.73789062 57.8515625 98.62109375 C57.32304688 99.52988281 56.79453125 100.43867187 56.25 101.375 C55.21354167 103.1328125 54.17708333 104.890625 53.140625 106.6484375 C52.62709473 107.52999512 52.11356445 108.41155273 51.58447266 109.31982422 C50.51315939 111.13197784 49.41828522 112.93037558 48.30224609 114.71533203 C47.76164551 115.58270996 47.22104492 116.45008789 46.6640625 117.34375 C45.92857178 118.50293945 45.92857178 118.50293945 45.17822266 119.68554688 C43.26964649 123.43467701 43.13453637 126.82937241 43 131 C47.29456388 133.30440013 51.31479085 134.78184562 56 136 C56 139.63 56 143.26 56 147 C52.96093213 148.01302262 51.05621146 148.09081332 47.88598633 148.02172852 C46.84513382 148.00163223 45.80428131 147.98153595 44.73188782 147.96083069 C43.60993515 147.93379562 42.48798248 147.90676056 41.33203125 147.87890625 C40.18208176 147.85529526 39.03213226 147.83168427 37.84733582 147.80735779 C34.16893256 147.73069154 30.49073825 147.64667954 26.8125 147.5625 C24.32097382 147.50928231 21.82943739 147.45654189 19.33789062 147.40429688 C13.22512772 147.27507226 7.11254221 147.13925872 1 147 C1 143.37 1 139.74 1 136 C2.175625 135.566875 3.35125 135.13375 4.5625 134.6875 C5.29726562 134.40648437 6.03203125 134.12546875 6.7890625 133.8359375 C8.65979016 133.12863058 10.54714202 132.46553276 12.4375 131.8125 C25.27868477 125.27926565 31.77515548 112.4785221 38.93725586 100.62036133 C41.92952996 95.682617 45.03915505 90.89055926 48.46484375 86.23828125 C50.50788072 83.25950215 52.23548823 80.15173053 54 77 C53.10861328 75.67162109 53.10861328 75.67162109 52.19921875 74.31640625 C47.52525981 67.33504985 42.90965105 60.3227198 38.375 53.25 C34.674135 47.48064243 30.79456655 41.9132922 26.69921875 36.4140625 C25.09090703 34.12915067 23.74656577 31.84061902 22.4375 29.375 C19.1644732 23.22701723 15.02860356 16.72122058 9 13 C6.65147774 12.43310718 6.65147774 12.43310718 4.25 12.3125 C3.45078125 12.24675781 2.6515625 12.18101562 1.828125 12.11328125 C0.92320313 12.05720703 0.92320313 12.05720703 0 12 C-0.80917656 7.41466617 -0.93391785 4.66958927 0 0 Z " fill="#452E8E" transform="translate(1233,680)"/>
<path d="M0 0 C15.88802315 17.71740121 21.33503852 39.69089166 21 63 C19.24560837 64.75439163 16.94502544 64.11982963 14.60829163 64.12442017 C13.8357756 64.12082489 13.06325958 64.11722961 12.26733398 64.11352539 C11.05279541 64.11374443 11.05279541 64.11374443 9.8137207 64.1139679 C7.12448492 64.11326854 4.43531751 64.1054751 1.74609375 64.09765625 C-0.11335716 64.09579215 -1.97280856 64.09436821 -3.83226013 64.09336853 C-8.73629096 64.08954271 -13.64029236 64.07971188 -18.54431152 64.06866455 C-23.54451092 64.05845181 -28.54471506 64.05387121 -33.54492188 64.04882812 C-43.36329421 64.03808967 -53.18164466 64.02101248 -63 64 C-62.69899302 67.01082511 -62.39367881 70.02111188 -62.0859375 73.03125 C-61.96013306 74.29630371 -61.96013306 74.29630371 -61.83178711 75.58691406 C-60.14456588 91.96801031 -56.83892725 109.43739137 -44 120.9375 C-36.41893438 126.14948262 -30.16213761 126.99020727 -21 126 C-10.97357252 123.32170773 -4.47467726 118.17996911 1.09765625 109.52734375 C4.40384086 103.76258708 6.1931591 97.35869008 8 91 C9.62490954 90.97301811 11.24994633 90.95361243 12.875 90.9375 C13.77992187 90.92589844 14.68484375 90.91429687 15.6171875 90.90234375 C18 91 18 91 20 92 C20.20800763 104.36159608 14.01628798 116.78789473 6.03515625 125.953125 C-4.04853982 136.09488458 -16.55539959 140.97031818 -30.8125 141.4375 C-46.2658884 141.02859005 -61.15673982 135.19143826 -72 124 C-89.97771801 105.03810034 -95.72977637 80.78749666 -95.30859375 55.3125 C-94.55135931 34.37386793 -86.73742112 14.20256829 -71.48828125 -0.40625 C-50.23276071 -18.29158596 -20.80120289 -18.83352153 0 0 Z M-54.46875 7.76171875 C-58.7716087 14.0513566 -60.35828768 20.92832569 -61.75 28.3125 C-61.94190918 29.30624634 -61.94190918 29.30624634 -62.13769531 30.32006836 C-63.28225178 37.06569729 -63 42.88659936 -63 50 C-45.84 50 -28.68 50 -11 50 C-11.40963162 34.69820132 -11.40963162 34.69820132 -14 20 C-14.29003906 18.74703125 -14.29003906 18.74703125 -14.5859375 17.46875 C-16.474289 10.09307121 -19.78175566 3.8933882 -26.1875 -0.5 C-36.91805027 -5.81779482 -47.55713551 -0.83067472 -54.46875 7.76171875 Z " fill="#462E8F" transform="translate(1703,690)"/>
<path d="M0 0 C3.05414014 1.49391529 4.72434908 1.83758994 8.05859375 1.49609375 C8.71859375 0.17609375 9.37859375 -1.14390625 10.05859375 -2.50390625 C14.01859375 -2.50390625 17.97859375 -2.50390625 22.05859375 -2.50390625 C22.05859375 12.67609375 22.05859375 27.85609375 22.05859375 43.49609375 C18.09859375 43.49609375 14.13859375 43.49609375 10.05859375 43.49609375 C9.70796875 41.96984375 9.35734375 40.44359375 8.99609375 38.87109375 C6.00650658 27.99348786 0.6938665 15.57659843 -8.99609375 9.12890625 C-15.36817786 5.84082014 -22.39200169 5.07345386 -29.27734375 7.2265625 C-34.63086416 9.66450395 -37.69316657 12.81237844 -40.19140625 18.18359375 C-41.71732627 24.92307382 -42.00103784 31.50274364 -38.43359375 37.62890625 C-30.54185618 47.50390772 -15.71640332 51.74969653 -4.25390625 55.99609375 C9.14437764 61.10336038 22.69010706 67.99490196 29.05859375 81.49609375 C29.61546875 82.48609375 30.17234375 83.47609375 30.74609375 84.49609375 C34.87802236 93.94050201 34.65949253 107.89369699 31.05859375 117.49609375 C25.15491716 130.70986295 17.16686106 139.91684024 3.6328125 145.49609375 C-9.44019075 150.06615203 -22.03456497 149.47768161 -34.94140625 144.49609375 C-37.66374697 143.00986246 -40.21815815 141.44616694 -42.7578125 139.66796875 C-45.33472851 138.28500846 -47.0587524 138.27318203 -49.94140625 138.49609375 C-50.93140625 140.47609375 -51.92140625 142.45609375 -52.94140625 144.49609375 C-56.90140625 144.49609375 -60.86140625 144.49609375 -64.94140625 144.49609375 C-64.94140625 127.00609375 -64.94140625 109.51609375 -64.94140625 91.49609375 C-60.98140625 91.49609375 -57.02140625 91.49609375 -52.94140625 91.49609375 C-52.57789063 92.83800781 -52.57789063 92.83800781 -52.20703125 94.20703125 C-47.88145625 109.8123749 -42.74981339 124.80363683 -27.94140625 133.49609375 C-20.36931278 136.67379649 -12.08680234 136.23402365 -4.41015625 133.734375 C1.31132836 130.86457971 5.003588 125.86985669 7.55859375 120.12109375 C8.85399386 110.72944292 8.75568012 103.45794779 3.05859375 95.49609375 C-3.93148973 87.78411248 -15.89316271 84.48281652 -25.37109375 80.7421875 C-33.8244245 77.38803331 -41.51223793 73.85291512 -48.94140625 68.49609375 C-49.53179688 68.10035156 -50.1221875 67.70460938 -50.73046875 67.296875 C-57.31992343 62.48150427 -61.66277272 53.73849124 -63.56640625 45.93359375 C-65.06178304 32.22597319 -63.39855977 20.41243046 -55.1875 9.07421875 C-48.67447127 1.232269 -40.13229988 -4.42295657 -30.00390625 -6.19140625 C-18.46702834 -7.1655466 -9.93878334 -5.7104917 0 0 Z " fill="#462E8F" transform="translate(1801.94140625,682.50390625)"/>
<path d="M0 0 C3.19723793 1.77992275 3.19723793 1.77992275 7.1796875 1.49609375 C8.1696875 0.17609375 9.1596875 -1.14390625 10.1796875 -2.50390625 C13.8096875 -2.50390625 17.4396875 -2.50390625 21.1796875 -2.50390625 C21.1796875 12.67609375 21.1796875 27.85609375 21.1796875 43.49609375 C17.5496875 43.49609375 13.9196875 43.49609375 10.1796875 43.49609375 C9.7878125 42.44421875 9.3959375 41.39234375 8.9921875 40.30859375 C8.57646484 39.21804688 8.57646484 39.21804688 8.15234375 38.10546875 C7.44547496 36.20912999 6.76983309 34.30106037 6.11328125 32.38671875 C2.28807405 21.63069059 -2.80584581 13.42419509 -12.9453125 7.74609375 C-19.07420097 5.32925538 -26.1414411 5.42119571 -32.1953125 7.99609375 C-37.17455071 10.83845149 -39.34045625 15.53638126 -41.8203125 20.49609375 C-42.36513635 26.90825138 -42.27190133 31.8872619 -38.8203125 37.49609375 C-38.8203125 38.15609375 -38.8203125 38.81609375 -38.8203125 39.49609375 C-38.1603125 39.49609375 -37.5003125 39.49609375 -36.8203125 39.49609375 C-36.8203125 40.15609375 -36.8203125 40.81609375 -36.8203125 41.49609375 C-36.28019531 41.76292969 -35.74007813 42.02976562 -35.18359375 42.3046875 C-33.50388607 43.15148228 -31.83562964 44.02116097 -30.17578125 44.90625 C-22.70603075 48.80230975 -15.14219169 51.9630751 -7.2578125 54.93359375 C7.97541362 60.74423116 21.94640751 67.59294412 29.171875 83.00390625 C29.67074219 84.23753906 29.67074219 84.23753906 30.1796875 85.49609375 C30.54578125 86.3984375 30.911875 87.30078125 31.2890625 88.23046875 C34.24965152 99.08596182 33.21348167 112.48772653 28.1796875 122.49609375 C20.89163585 134.97958816 11.37700279 143.39292272 -2.6953125 147.37109375 C-16.22540581 150.28285352 -29.53689452 148.66297415 -41.3828125 141.24609375 C-42.12660156 140.7253125 -42.87039063 140.20453125 -43.63671875 139.66796875 C-46.21363476 138.28500846 -47.93765865 138.27318203 -50.8203125 138.49609375 C-51.8103125 140.47609375 -52.8003125 142.45609375 -53.8203125 144.49609375 C-57.7803125 144.49609375 -61.7403125 144.49609375 -65.8203125 144.49609375 C-65.8203125 127.00609375 -65.8203125 109.51609375 -65.8203125 91.49609375 C-61.8603125 91.49609375 -57.9003125 91.49609375 -53.8203125 91.49609375 C-53.54058594 92.57246094 -53.26085938 93.64882813 -52.97265625 94.7578125 C-49.40214944 107.97172644 -44.60512513 123.45253301 -32.296875 131.0546875 C-23.9682528 135.36554327 -16.80264141 136.7606221 -7.6328125 134.24609375 C-1.7510904 132.29152454 1.56282346 129.9843305 4.4296875 124.43359375 C7.68874248 117.47470996 8.31763938 110.50154427 6.6015625 102.953125 C2.90852766 93.20015573 -6.04572047 89.07555482 -15.02856445 84.9777832 C-19.07509062 83.18821544 -23.16733817 81.58782937 -27.3203125 80.05859375 C-40.81209559 74.95763635 -53.60178499 68.7364081 -60.7578125 55.55859375 C-66.1294217 43.59287118 -65.91763633 31.80452035 -61.8203125 19.49609375 C-56.85713807 7.93353355 -48.70748229 0.39016662 -37.26171875 -4.625 C-24.45799273 -9.23434137 -11.53687445 -6.06509971 0 0 Z " fill="#462E90" transform="translate(1908.8203125,682.50390625)"/>
<path d="M0 0 C6.50760713 6.10881226 8.54237996 14.15850263 8.87890625 22.81640625 C8.66363617 28.02855158 7.86135926 32.60152805 4.28125 36.5625 C-0.49256661 40.68108688 -3.67654092 41.23134695 -9.77734375 41.15234375 C-14.28894944 40.7603401 -16.41799511 38.81704803 -19.4375 35.625 C-22.76709766 30.68801036 -23.67967887 26.69080872 -22.7265625 20.89453125 C-21.48829517 15.80951542 -19.49575964 12.86561009 -15.25 9.9375 C-15.25 9.2775 -15.25 8.6175 -15.25 7.9375 C-18.15719628 7.51205664 -20.36707827 7.45752241 -22.99609375 8.88671875 C-37.96341843 20.52056355 -41.53412483 45.2048015 -43.78710938 62.92553711 C-44.42906 68.90592113 -44.43116128 74.88120569 -44.453125 80.890625 C-44.46167511 82.71820343 -44.46167511 82.71820343 -44.47039795 84.58270264 C-44.47980041 87.14431908 -44.48636289 89.70594735 -44.49023438 92.26757812 C-44.50000377 96.18901273 -44.53109809 100.10993669 -44.5625 104.03125 C-44.56902489 106.52603857 -44.57427737 109.02083086 -44.578125 111.515625 C-44.5904718 112.68651672 -44.6028186 113.85740845 -44.61553955 115.06378174 C-44.61253845 116.15551697 -44.60953735 117.2472522 -44.60644531 118.37207031 C-44.61009094 119.3286554 -44.61373657 120.28524048 -44.61749268 121.27081299 C-44.17531251 124.47946495 -43.15516866 126.33625666 -41.25 128.9375 C-35.6321371 132.30821774 -29.59567218 132.73601934 -23.1640625 133.5078125 C-20.25 133.9375 -20.25 133.9375 -19.25 134.9375 C-19.15176063 136.60179051 -19.12026369 138.27031931 -19.125 139.9375 C-19.12113281 141.29875 -19.12113281 141.29875 -19.1171875 142.6875 C-19.25 144.9375 -19.25 144.9375 -20.25 145.9375 C-22.45867831 146.03182985 -24.67041521 146.05492431 -26.88110352 146.05102539 C-27.57375305 146.05117142 -28.26640259 146.05131744 -28.9800415 146.0514679 C-31.27969446 146.05076874 -33.57926737 146.04297628 -35.87890625 146.03515625 C-37.46931412 146.03329208 -39.05972257 146.03186817 -40.65013123 146.03086853 C-44.8439593 146.02704329 -49.03775295 146.01721295 -53.23156738 146.00616455 C-57.50788914 145.99595057 -61.78421644 145.99137094 -66.06054688 145.98632812 C-74.45704708 145.97559069 -82.85351926 145.95851419 -91.25 145.9375 C-91.25 141.9775 -91.25 138.0175 -91.25 133.9375 C-88.22265625 133.25390625 -85.1953125 132.5703125 -82.16796875 131.88671875 C-79.15650051 130.9070845 -77.99903464 130.52518848 -76.25 127.9375 C-74.40287319 122.58899119 -73.96188101 117.90212419 -73.99121094 112.27099609 C-73.9877063 111.4325415 -73.98420166 110.59408691 -73.98059082 109.73022461 C-73.97182988 106.97370988 -73.97760592 104.2174546 -73.984375 101.4609375 C-73.98302597 99.5291031 -73.98108346 97.59726903 -73.97857666 95.66543579 C-73.97563237 91.61888391 -73.97989787 87.57242048 -73.98925781 83.52587891 C-74.00060595 78.37179636 -73.99411794 73.21792322 -73.98211288 68.0638485 C-73.97483618 64.07266708 -73.97720948 60.08153409 -73.98236847 56.0903511 C-73.98369135 54.19199218 -73.98210568 52.29362869 -73.97740936 50.39527512 C-73.18467444 31.83277457 -73.18467444 31.83277457 -79.25 14.9375 C-83.07254898 11.96440635 -86.50521356 11.48497536 -91.25 10.9375 C-91.58 10.6075 -91.91 10.2775 -92.25 9.9375 C-92.25 6.3075 -92.25 2.6775 -92.25 -1.0625 C-77.73 -1.0625 -63.21 -1.0625 -48.25 -1.0625 C-47.755 10.3225 -47.755 10.3225 -47.25 21.9375 C-46.404375 20.308125 -45.55875 18.67875 -44.6875 17 C-39.28235684 7.19766579 -33.39215691 -1.23360616 -22.1796875 -4.703125 C-13.99315701 -6.22774201 -6.9408574 -4.40477489 0 0 Z " fill="#452D8D" transform="translate(1599.25,681.0625)"/>
<path d="M0 0 C6.8864274 6.17403836 11.80729635 13.30715876 12.34375 22.78125 C12.35421255 24.56249973 12.34360932 26.34399122 12.3125 28.125 C12.33570313 29.45337891 12.33570313 29.45337891 12.359375 30.80859375 C12.3035971 40.3047811 8.52554303 48.85693203 1.8125 55.625 C-9.7359662 64.25238357 -19.96360976 66.46212568 -34.1875 64.625 C-44.81086223 61.92912765 -51.89279209 55.07233792 -57.77734375 46.23828125 C-62.80369514 37.14629384 -62.88236446 25.85729687 -60.1953125 15.9765625 C-56.0519327 5.55377481 -48.96562058 -1.82517238 -38.6796875 -6.51953125 C-36.52691045 -7.26023251 -34.40456883 -7.8623576 -32.1875 -8.375 C-31.218125 -8.6225 -30.24875 -8.87 -29.25 -9.125 C-18.30313239 -10.01862185 -8.53970648 -6.88686007 0 0 Z M-48.1875 11.625 C-52.38421517 18.56785069 -54.27930225 25.95317986 -52.7265625 34.01953125 C-50.46303233 42.68752031 -46.67438827 48.35270778 -39 53.0625 C-31.49425767 57.29384783 -23.79132659 57.90808305 -15.35546875 55.9765625 C-6.54719906 52.81045634 -1.23960848 46.8850673 2.8125 38.625 C5.53869305 30.10338995 4.31469257 20.52512711 0.3125 12.6875 C-0.1825 12.006875 -0.6775 11.32625 -1.1875 10.625 C-1.8475 10.625 -2.5075 10.625 -3.1875 10.625 C-3.1875 9.965 -3.1875 9.305 -3.1875 8.625 C-3.8475 8.625 -4.5075 8.625 -5.1875 8.625 C-5.43886719 8.01011719 -5.69023438 7.39523437 -5.94921875 6.76171875 C-8.34171813 2.63333653 -13.27724791 1.19807563 -17.6875 -0.125 C-30.53040686 -1.40929069 -39.5901176 1.64449209 -48.1875 11.625 Z " fill="#F07720" transform="translate(1988.1875,495.375)"/>
<path d="M0 0 C3.650625 -0.0825 7.30125 -0.165 11.0625 -0.25 C12.19953369 -0.28641602 13.33656738 -0.32283203 14.50805664 -0.36035156 C20.89563617 -0.4299832 24.8924988 0.03596921 30 4 C32.77617538 7.88051034 32.71531323 12.40270599 32 17 C30.9171875 18.546875 30.9171875 18.546875 29.8125 20.125 C29.214375 21.07375 28.61625 22.0225 28 23 C28.96399086 26.05694914 28.96399086 26.05694914 30.05859375 28.00390625 C32.38552671 32.93777656 33 38.60585758 33 44 C29.7 44 26.4 44 23 44 C22.73445313 42.85660156 22.46890625 41.71320312 22.1953125 40.53515625 C21.83897547 39.04416709 21.48218096 37.55328721 21.125 36.0625 C20.95097656 35.30775391 20.77695313 34.55300781 20.59765625 33.77539062 C20.12755935 31.83406455 19.5695703 29.91450456 19 28 C16.04335481 26.5216774 13.25770263 26.93967217 10 27 C10.01160156 28.14339844 10.02320313 29.28679688 10.03515625 30.46484375 C10.04453288 31.95572754 10.05363321 33.44661309 10.0625 34.9375 C10.07087891 35.69224609 10.07925781 36.44699219 10.08789062 37.22460938 C10.09652441 39.14994313 10.05224333 41.07535581 10 43 C9.505 43.495 9.505 43.495 9 44 C6.03 44 3.06 44 0 44 C0 29.48 0 14.96 0 0 Z M9 8 C9.33 10.97 9.66 13.94 10 17 C11.423125 17.061875 12.84625 17.12375 14.3125 17.1875 C15.11300781 17.22230469 15.91351562 17.25710938 16.73828125 17.29296875 C19.067591 17.17806609 19.067591 17.17806609 20.8125 15.65625 C22.30198529 13.97091559 22.30198529 13.97091559 21.6875 11.3125 C21.3471875 10.1678125 21.3471875 10.1678125 21 9 C17.0186217 7.6728739 13.14954773 7.93084087 9 8 Z " fill="#EC7520" transform="translate(1948,501)"/>
<path d="M0 0 C0 0.99 0 1.98 0 3 C-0.99 3.66 -1.98 4.32 -3 5 C-1.125 1.125 -1.125 1.125 0 0 Z M-5 6 C-5 9.63464315 -5.62548537 10.02840882 -8.0625 12.57421875 C-8.69414063 13.24130859 -9.32578125 13.90839844 -9.9765625 14.59570312 C-10.64429688 15.28599609 -11.31203125 15.97628906 -12 16.6875 C-13.00160156 17.7403418 -13.00160156 17.7403418 -14.0234375 18.81445312 C-15.67577321 20.54940562 -17.3347315 22.27747207 -19 24 C-19 20.47967572 -18.29648649 19.5614657 -16 17 C-15.34 17 -14.68 17 -14 17 C-13.74476562 16.41734375 -13.48953125 15.8346875 -13.2265625 15.234375 C-11.88258913 12.78611777 -10.38189704 11.18256752 -8.375 9.25 C-7.74335937 8.63640625 -7.11171875 8.0228125 -6.4609375 7.390625 C-5.73777344 6.70226562 -5.73777344 6.70226562 -5 6 Z " fill="#E1701C" transform="translate(1442,520)"/>
<path d="M0 0 C0.99 0.33 1.98 0.66 3 1 C2.67 1.33 2.34 1.66 2 2 C1.71898054 4.31952569 1.55217375 6.63885514 1.37890625 8.96875 C1.25386719 9.6390625 1.12882812 10.309375 1 11 C0.01 11.495 0.01 11.495 -1 12 C-1.02687279 10.18757948 -1.04633715 8.37504767 -1.0625 6.5625 C-1.07410156 5.55316406 -1.08570313 4.54382813 -1.09765625 3.50390625 C-1 1 -1 1 0 0 Z " fill="#322064" transform="translate(1369,870)"/>
<path d="M0 0 C0.33 0.99 0.66 1.98 1 3 C-1.64 5.64 -4.28 8.28 -7 11 C-7 7.47967572 -6.29648649 6.5614657 -4 4 C-3.34 4 -2.68 4 -2 4 C-1.34 2.68 -0.68 1.36 0 0 Z " fill="#BE602B" transform="translate(1430,533)"/>
<path d="" fill="#5D3560" transform="translate(0,0)"/>
<path d="" fill="#5D3560" transform="translate(0,0)"/>
</svg>
