<svg width="147" height="25" viewBox="0 0 147 25" fill="none" xmlns="http://www.w3.org/2000/svg">
<g clip-path="url(#clip0_0_1420)">
<path d="M71.4545 17.2845C71.2525 17.5044 71.0336 17.7082 70.7998 17.894C70.5512 18.0961 70.2853 18.276 70.0051 18.4313C69.7181 18.5912 69.4155 18.7213 69.102 18.8197C68.7507 18.9256 68.3853 18.9773 68.0183 18.9732C67.0981 18.9839 66.1874 18.7864 65.3543 18.3952C64.5555 18.0189 63.8436 17.4807 63.2637 16.8149C62.6683 16.1161 62.2089 15.3121 61.9092 14.4443C61.251 12.543 61.251 10.4757 61.9092 8.57444C62.2111 7.71041 62.6703 6.90975 63.2637 6.21294C63.843 5.54753 64.5551 5.01075 65.3543 4.6371C66.1891 4.25269 67.0994 4.05985 68.0183 4.07269C68.3779 4.06972 68.7368 4.10605 69.0885 4.18105C69.4015 4.24605 69.705 4.35075 69.9915 4.49261C70.2545 4.62503 70.5014 4.78713 70.7275 4.97575C70.9526 5.16839 71.1638 5.37661 71.3597 5.59886V0.862322C71.3505 0.638977 71.4245 0.420167 71.5674 0.248234C71.6443 0.161926 71.7402 0.0945998 71.8475 0.0515169C71.9549 0.00843407 72.0707 -0.00923135 72.186 -0.000101436H74.5791C74.68 0.00266574 74.7795 0.0240915 74.8726 0.0631056C74.9753 0.10536 75.07 0.16493 75.1525 0.239209C75.2376 0.316137 75.308 0.407934 75.3602 0.510116C75.4146 0.619487 75.4425 0.740166 75.4415 0.862322V17.8308C75.4594 17.9488 75.4496 18.0693 75.4128 18.1828C75.3761 18.2963 75.3133 18.3997 75.2296 18.4847C75.1459 18.5697 75.0435 18.6341 74.9306 18.6726C74.8177 18.7112 74.6973 18.7229 74.5791 18.7068H72.4885C72.3757 18.7113 72.2632 18.6912 72.1589 18.6481C72.0796 18.6122 72.011 18.5562 71.9602 18.4855C71.9003 18.4004 71.8517 18.3078 71.8157 18.2101C71.7751 18.1017 71.7209 17.9753 71.6577 17.8308L71.4545 17.2845ZM65.2369 11.5094C65.2333 11.9846 65.3065 12.4573 65.4537 12.9091C65.585 13.3228 65.7968 13.7064 66.0768 14.038C66.3433 14.3564 66.6742 14.6148 67.0476 14.7965C67.4407 14.984 67.8718 15.0783 68.3073 15.0719C68.7484 15.0751 69.1852 14.9859 69.5897 14.8101C69.9835 14.6434 70.3397 14.3993 70.6372 14.0921C70.9401 13.7773 71.1833 13.4101 71.3552 13.0085C71.5388 12.5795 71.6413 12.1202 71.6577 11.6539V11.4958C71.6596 11.0217 71.5723 10.5515 71.4003 10.1096C71.2404 9.68339 71.0015 9.2912 70.6959 8.95373C70.397 8.62185 70.0347 8.35318 69.6303 8.16355C69.2167 7.96879 68.7645 7.87001 68.3073 7.87458C67.8702 7.86786 67.438 7.967 67.0476 8.16355C66.6718 8.35536 66.3409 8.62467 66.0768 8.95373C65.8002 9.29772 65.589 9.6895 65.4537 10.1096C65.3065 10.5615 65.2333 11.0342 65.2369 11.5094Z" fill="#069A49"/>
<path d="M87.4928 17.2845C87.2886 17.5022 87.0699 17.7059 86.8381 17.894C86.5887 18.0972 86.3212 18.2771 86.0389 18.4313C85.7451 18.5934 85.4348 18.7236 85.1133 18.8197C84.7745 18.9185 84.4231 18.9672 84.0702 18.9642C83.1499 18.9759 82.2389 18.7782 81.4062 18.3862C80.606 18.0101 79.8926 17.4719 79.3111 16.8058C78.7173 16.1059 78.2581 15.3022 77.9565 14.4353C77.2983 12.534 77.2983 10.4667 77.9565 8.56543C78.2602 7.70222 78.7193 6.90186 79.3111 6.20392C79.8917 5.53801 80.6054 5.00119 81.4062 4.62809C82.24 4.23969 83.1505 4.0437 84.0702 4.05464C84.4283 4.05141 84.7857 4.08776 85.1358 4.16301C85.449 4.22763 85.7525 4.33234 86.0389 4.47457C86.3007 4.60843 86.5461 4.77206 86.7704 4.96222C86.9954 5.15485 87.2067 5.36307 87.4025 5.58533V0.862332C87.3934 0.638987 87.4674 0.420177 87.6102 0.248244C87.6881 0.16185 87.7848 0.0945193 87.8928 0.0514576C88.0009 0.008396 88.1174 -0.00923811 88.2333 -9.18373e-05H90.5948C90.6958 0.00225002 90.7954 0.0236926 90.8883 0.0631152C91.0998 0.150213 91.2729 0.310481 91.376 0.514645C91.4304 0.624017 91.4582 0.744682 91.4573 0.866838V17.8353C91.4752 17.9533 91.4654 18.0738 91.4286 18.1873C91.3918 18.3008 91.3291 18.4042 91.2454 18.4892C91.1617 18.5743 91.0593 18.6386 90.9463 18.6772C90.8334 18.7157 90.7131 18.7274 90.5948 18.7113H88.5133C88.4005 18.7158 88.288 18.6958 88.1837 18.6526C88.1051 18.6156 88.0368 18.5597 87.985 18.49C87.9267 18.4046 87.8796 18.3121 87.845 18.2146L87.6825 17.8353L87.4928 17.2845ZM81.2707 11.5094C81.2664 11.985 81.3411 12.4581 81.492 12.9091C81.6236 13.3217 81.8336 13.705 82.1106 14.038C82.3788 14.3565 82.7111 14.6149 83.0859 14.7965C83.479 14.984 83.9101 15.0783 84.3457 15.072C84.7853 15.0755 85.2207 14.9863 85.6235 14.8101C86.0173 14.6434 86.3735 14.3993 86.671 14.0921C86.9739 13.7773 87.2172 13.4101 87.389 13.0085C87.5747 12.5802 87.6774 12.1205 87.6915 11.6539V11.4959C87.6928 11.0222 87.6071 10.5523 87.4386 10.1097C87.275 9.68422 87.0348 9.29243 86.7297 8.95374C86.4325 8.62198 86.0717 8.35328 85.6686 8.16356C85.255 7.9688 84.8028 7.87002 84.3457 7.87459C83.9086 7.86787 83.4763 7.96701 83.0859 8.16356C82.7087 8.3553 82.3764 8.62458 82.1106 8.95374C81.837 9.29902 81.6275 9.6905 81.492 10.1097C81.3411 10.5607 81.2663 11.0338 81.2707 11.5094Z" fill="#069A49"/>
<path d="M114.427 4.58789C114.408 4.53978 114.38 4.49584 114.345 4.45863C114.309 4.42142 114.266 4.39168 114.219 4.37115C114.077 4.30854 113.922 4.28068 113.767 4.28988H111.058C110.889 4.27835 110.721 4.32277 110.58 4.4163C110.435 4.54721 110.33 4.71621 110.277 4.90395L108.105 12.6116C108.056 12.4761 107.983 12.2458 107.884 11.9252C107.785 11.6047 107.672 11.2254 107.545 10.7874L107.13 9.36054C106.981 8.84129 106.827 8.31751 106.678 7.79374C106.529 7.26996 106.38 6.75522 106.227 6.25402C106.073 5.75282 105.956 5.30581 105.839 4.89943C105.81 4.78538 105.759 4.67802 105.69 4.58337C105.673 4.53504 105.646 4.49077 105.611 4.45344C105.576 4.41611 105.534 4.38653 105.486 4.36663C105.407 4.32845 105.321 4.30548 105.234 4.2989H102.339C102.172 4.28804 102.005 4.33245 101.865 4.42533C101.719 4.55509 101.614 4.72452 101.563 4.91297L99.3862 12.6206C99.3411 12.4851 99.2688 12.2549 99.1695 11.9343C99.0701 11.6137 98.9573 11.2344 98.8308 10.7964L98.4154 9.36958C98.2619 8.85033 98.1129 8.32655 97.9639 7.80278C97.8149 7.279 97.6614 6.76426 97.5124 6.26306C97.3634 5.76186 97.246 5.31485 97.1286 4.90847C97.0848 4.73237 96.9869 4.57444 96.8486 4.45694C96.7196 4.35606 96.5609 4.30051 96.3971 4.2989H93.7737C93.65 4.27982 93.5235 4.3017 93.4135 4.36121C93.3034 4.42072 93.2159 4.51461 93.1641 4.62852C93.1236 4.75946 93.1095 4.89715 93.1227 5.03357C93.1359 5.17 93.1761 5.30244 93.2409 5.42321L97.9684 18.2286C98.016 18.3685 98.1021 18.4921 98.2168 18.5853C98.3928 18.6879 98.5962 18.7336 98.7992 18.7162H100.018C100.182 18.7253 100.342 18.6739 100.47 18.5717C100.575 18.4711 100.665 18.3555 100.736 18.2286L103.734 10.2681L106.669 18.2286C106.719 18.3688 106.806 18.4924 106.922 18.5853C107.097 18.6881 107.299 18.7339 107.5 18.7162H108.719C108.883 18.7253 109.043 18.6739 109.171 18.5717C109.278 18.4724 109.368 18.3566 109.437 18.2286L114.318 5.27421C114.363 5.15569 114.396 5.03323 114.418 4.90847C114.45 4.80448 114.453 4.69354 114.427 4.58789Z" fill="#069A49"/>
<path d="M129.783 17.8672C129.783 17.9922 129.76 18.1162 129.716 18.2329C129.672 18.348 129.593 18.4462 129.49 18.5129C129.41 18.5937 129.308 18.6487 129.196 18.6709C129.098 18.6922 128.998 18.7043 128.898 18.707H126.641C126.51 18.7113 126.379 18.6898 126.257 18.6438C126.163 18.6075 126.08 18.5467 126.017 18.4677C125.95 18.3842 125.898 18.2895 125.864 18.1878C125.823 18.0794 125.778 17.962 125.733 17.831L125.584 17.3208C125.367 17.5378 125.135 17.7386 124.889 17.9214C124.619 18.1245 124.33 18.3014 124.026 18.4496C123.702 18.6067 123.363 18.7322 123.015 18.8244C122.649 18.9192 122.273 18.9663 121.895 18.9644C121.227 18.9668 120.562 18.8803 119.917 18.707C119.298 18.5365 118.703 18.286 118.147 17.962C117.048 17.3202 116.136 16.4017 115.501 15.298C115.177 14.738 114.927 14.1385 114.756 13.5144C114.582 12.8605 114.494 12.1865 114.494 11.5096C114.485 10.5017 114.684 9.50276 115.077 8.57469C115.446 7.69368 115.981 6.89192 116.653 6.21318C117.344 5.52487 118.166 4.98113 119.07 4.61368C119.974 4.24622 120.942 4.06241 121.918 4.07294C122.36 4.07043 122.802 4.12352 123.232 4.23098C123.618 4.33666 123.991 4.48825 124.342 4.68251C124.67 4.85902 124.974 5.0776 125.245 5.33271C125.513 5.58028 125.754 5.85576 125.963 6.15448L126.293 5.125C126.365 4.93535 126.428 4.78183 126.478 4.67347C126.515 4.57782 126.569 4.48926 126.636 4.41159C126.694 4.35342 126.768 4.31407 126.848 4.2987C126.964 4.27767 127.082 4.2686 127.2 4.27161H128.889C128.989 4.27255 129.089 4.28313 129.187 4.30322C129.299 4.32542 129.401 4.38045 129.481 4.46125C129.577 4.53689 129.655 4.63438 129.706 4.74571C129.754 4.86179 129.777 4.98621 129.774 5.11145L129.783 17.8672ZM118.59 11.5096C118.585 11.9864 118.665 12.4602 118.825 12.9094C118.967 13.327 119.192 13.7111 119.488 14.0382C119.778 14.3604 120.132 14.6188 120.527 14.7968C120.953 14.9861 121.415 15.0801 121.881 15.0722C122.353 15.0778 122.822 14.9893 123.259 14.8117C123.696 14.6342 124.094 14.3712 124.428 14.0382C124.753 13.717 125.01 13.3329 125.182 12.9094C125.549 12.017 125.549 11.0158 125.182 10.1234C125.006 9.69402 124.75 9.30182 124.428 8.96752C124.105 8.63305 123.72 8.36466 123.295 8.17734C122.849 7.98223 122.368 7.88375 121.881 7.88837C121.414 7.88042 120.951 7.97925 120.527 8.17734C120.129 8.36563 119.776 8.63475 119.488 8.96752C119.196 9.30719 118.97 9.69948 118.825 10.1234C118.666 10.5683 118.587 11.0374 118.59 11.5096Z" fill="#069A49"/>
<path d="M131.747 5.37734C131.69 5.25604 131.66 5.12337 131.66 4.98901C131.66 4.85466 131.69 4.722 131.747 4.6007C131.865 4.38849 132.122 4.28011 132.524 4.28011H135.328C135.496 4.27747 135.658 4.3407 135.78 4.45621C135.906 4.58193 135.999 4.73709 136.05 4.90774L139.311 14.9904L142.408 4.90774C142.46 4.71527 142.573 4.54446 142.729 4.42008C142.891 4.32973 143.076 4.28745 143.261 4.29817H146.178C146.348 4.29095 146.517 4.31861 146.675 4.37945C146.784 4.42608 146.874 4.50695 146.932 4.60973C146.983 4.70672 147.001 4.81786 146.982 4.92581C146.967 5.04519 146.937 5.16211 146.892 5.27348C146.603 5.98238 146.291 6.76353 145.948 7.60337C145.605 8.44322 145.257 9.32822 144.887 10.2403C144.517 11.1524 144.151 12.078 143.772 13.0172C143.392 13.9564 143.022 14.8865 142.665 15.7941C142.309 16.7017 141.957 17.5731 141.627 18.4085C141.297 19.2438 140.986 20.0159 140.724 20.7158C140.462 21.4157 140.209 22.0297 140.006 22.558C139.803 23.0863 139.645 23.4972 139.554 23.7862L139.586 23.7275C139.542 23.9175 139.443 24.0903 139.302 24.2242C139.166 24.347 138.988 24.4132 138.805 24.4093H136.181C135.931 24.4368 135.68 24.3655 135.482 24.2106C135.348 24.0468 135.282 23.8387 135.296 23.6282C135.292 23.5493 135.306 23.4706 135.337 23.3979C135.353 23.3616 135.374 23.3281 135.4 23.2985L137.179 18.6659L131.747 5.37734Z" fill="#069A49"/>
<path d="M59.2904 9.10742C59.1251 8.54237 58.8883 8.00068 58.586 7.49546C58.278 6.99034 57.9112 6.52352 57.4933 6.10475C57.0756 5.68507 56.6069 5.31948 56.0981 5.01657C55.589 4.71253 55.0426 4.47577 54.4726 4.31218C53.8855 4.14367 53.2773 4.06005 52.6665 4.06384C51.7219 4.06139 50.7872 4.25656 49.9225 4.63681C49.0577 5.01707 48.2822 5.57399 47.6455 6.27182C47.2297 6.72724 46.8718 7.23227 46.5799 7.77542C46.2832 8.32947 46.0558 8.91784 45.9026 9.52734C45.7425 10.1606 45.6621 10.8113 45.6633 11.4644C45.6524 12.4831 45.857 13.4925 46.2638 14.4264C47.0326 16.2105 48.4682 17.6235 50.2643 18.3638C51.1753 18.7443 52.1534 18.9378 53.1406 18.9327C54.0303 18.9371 54.9118 18.762 55.7324 18.418C56.5439 18.0721 57.2883 17.586 57.9313 16.9821C58.042 16.8996 58.1395 16.8006 58.2203 16.6886C58.3026 16.5761 58.3455 16.4396 58.3422 16.3003C58.3434 16.2179 58.3328 16.1358 58.3106 16.0565C58.2792 15.9567 58.2251 15.8655 58.1526 15.7901L56.9786 14.4355C56.8759 14.3264 56.7625 14.2281 56.6399 14.142C56.5542 14.0765 56.4498 14.0401 56.3419 14.0381C56.2468 14.0374 56.1532 14.0623 56.071 14.1104C55.9642 14.1777 55.8616 14.2516 55.764 14.3316C55.6071 14.4866 55.4293 14.6188 55.2357 14.7245C55.0057 14.8566 54.7638 14.9669 54.5132 15.0541C54.2473 15.151 53.974 15.2265 53.696 15.2798C53.4257 15.3367 53.1503 15.3654 52.8742 15.3656C52.5556 15.3632 52.2385 15.3207 51.9305 15.2392C51.5954 15.1553 51.2765 15.0165 50.9868 14.8283C50.6484 14.6055 50.3627 14.3115 50.1498 13.9667C49.9368 13.622 49.8018 13.2349 49.7541 12.8325H57.7552C58.1108 12.8419 58.4663 12.8147 58.8163 12.7513C59.0192 12.7141 59.202 12.6051 59.3311 12.4442C59.4439 12.2658 59.5049 12.0594 59.5072 11.8482C59.5072 11.5954 59.5072 11.2748 59.5072 10.8819C59.52 10.2831 59.447 9.68554 59.2904 9.10742ZM55.5337 9.63572H49.867C49.9121 8.31274 51.1629 7.25164 52.7026 7.25164C54.2423 7.25164 55.4118 8.24049 55.5247 9.50929C55.5469 9.54234 55.5665 9.57705 55.5834 9.61313H55.5337V9.63572Z" fill="#069A49"/>
<path d="M44.7058 17.9573C44.62 17.8128 44.5523 17.6863 44.4981 17.5825L41.2968 12.2951C41.8008 11.9909 42.2741 11.6385 42.7101 11.243C43.4049 10.5843 43.9142 9.75426 44.1866 8.83635C44.329 8.35873 44.4005 7.86278 44.3988 7.36437C44.3972 6.62894 44.2434 5.90179 43.9473 5.22863C43.6645 4.57196 43.2583 3.9757 42.7507 3.47219C42.2345 2.96979 41.6298 2.56718 40.9672 2.28466C40.2753 1.98737 39.5303 1.83375 38.7772 1.83314H31.4444C31.3754 1.82611 31.3057 1.83507 31.2407 1.85934C31.1757 1.88362 31.1171 1.92255 31.0696 1.97311C30.9826 2.07988 30.9377 2.21477 30.9432 2.35239V18.2011C30.9376 18.2686 30.9472 18.3366 30.9715 18.3999C30.9957 18.4632 31.0339 18.5203 31.0832 18.5668C31.1835 18.6522 31.3128 18.6958 31.4444 18.6887H34.1129C34.4606 18.6887 34.8896 18.6255 34.8896 18.3004V13.0672H37.5988L39.9332 18.2869C39.9613 18.4081 40.0318 18.5154 40.1318 18.5894C40.2316 18.6659 40.3538 18.7071 40.4795 18.7068H44.3717C44.4884 18.7133 44.6037 18.6781 44.6968 18.6075C44.7359 18.5734 44.7668 18.5309 44.7871 18.4832C44.8075 18.4355 44.8167 18.3838 44.8142 18.332C44.8102 18.2 44.7729 18.0711 44.7058 17.9573ZM39.739 8.12294C39.6639 8.34724 39.5525 8.55773 39.4094 8.74605C39.2596 8.92839 39.0775 9.08147 38.8721 9.19758C38.6546 9.32697 38.4107 9.40567 38.1586 9.42785C38.0322 9.42785 37.9148 9.45495 37.8065 9.46398C37.6981 9.47301 37.5807 9.46398 37.4452 9.46398H35.0973C35.072 9.46459 35.0468 9.46013 35.0233 9.45087C34.9998 9.44161 34.9783 9.42773 34.9602 9.41006C34.9422 9.39239 34.9278 9.37128 34.918 9.34797C34.9082 9.32467 34.9031 9.29962 34.9031 9.27434V5.51762C34.9031 5.46613 34.9236 5.41673 34.96 5.38032C34.9964 5.34391 35.0458 5.32345 35.0973 5.32345H36.9034C37.1246 5.32345 37.3278 5.32345 37.513 5.32345L38.109 5.35958C38.3571 5.39513 38.5953 5.48119 38.8088 5.61244C39.0186 5.73545 39.2038 5.89618 39.3552 6.08654C39.5078 6.27392 39.627 6.48625 39.7074 6.71417C39.7885 6.9309 39.8313 7.16008 39.8338 7.39146C39.84 7.64348 39.8065 7.8949 39.7345 8.13649L39.739 8.12294Z" fill="#069A49"/>
<path d="M6.38917 9.94274C6.55157 10.0206 6.69259 10.1369 6.80007 10.2814C7.55864 11.0354 8.32172 11.7895 9.05772 12.539C9.23833 12.7242 9.37378 12.7648 9.54084 12.539C9.61788 12.4507 9.70086 12.3677 9.78919 12.2907C13.1305 8.94938 16.4718 5.60956 19.8131 2.27125C19.931 2.1127 20.0861 1.98555 20.2647 1.901C20.7884 2.42477 21.3167 2.96209 21.8541 3.49038C21.8832 3.50694 21.9074 3.53092 21.9242 3.55987C21.941 3.58881 21.9499 3.62171 21.9499 3.65519C21.9499 3.68868 21.941 3.72156 21.9242 3.75051C21.9074 3.77945 21.8832 3.80343 21.8541 3.82C21.7683 3.89676 21.6915 3.98706 21.6057 4.06833L11.5411 14.142C11.4102 14.2684 11.2612 14.3768 11.0896 14.5122C11.2646 14.7468 11.4644 14.9618 11.6856 15.1534L24.9561 1.88745C25.5114 2.44283 26.0533 2.98918 26.5996 3.53101C26.7125 3.63938 26.6809 3.7297 26.5771 3.82452L26.3648 4.03674L12.0784 18.3231C11.6269 18.7747 11.7308 18.7747 11.2792 18.3231L9.60858 16.6525C9.32412 16.368 9.3196 16.3725 9.02159 16.6525C8.41654 17.2575 7.81149 17.858 7.21547 18.4586C7.05292 18.6256 6.94003 18.6934 6.73233 18.4857C4.50177 16.2431 2.2652 14.002 0.0226043 11.7624C2.78642e-05 11.7398 -0.00900162 11.7037 -0.00448633 11.7082L1.73391 9.98337L6.89489 15.1444C7.13074 14.974 7.34193 14.7719 7.5225 14.5438L6.73685 13.7582C6.12277 13.1396 5.50868 12.521 4.88557 11.9114C4.71851 11.7443 4.6553 11.6315 4.863 11.4328C5.39129 10.9496 5.88798 10.4304 6.38917 9.94274Z" fill="#56BA50"/>
</g>
<defs>
<clipPath id="clip0_0_1420">
<rect width="147" height="24.3916" fill="white"/>
</clipPath>
</defs>
</svg>
